<svg width="2679" height="1900" viewBox="0 0 2679 1900" fill="none"
  xmlns="http://www.w3.org/2000/svg">
  <path d="M2582 950C2582 1474.67 2156.67 1900 1632 1900C1107.33 1900 682 1474.67 682 950C682 425.329 1107.33 0 1632 0C2156.67 0 2582 425.329 2582 950ZM701.357 950C701.357 1463.98 1118.02 1880.64 1632 1880.64C2145.98 1880.64 2562.64 1463.98 2562.64 950C2562.64 436.02 2145.98 19.3565 1632 19.3565C1118.02 19.3565 701.357 436.02 701.357 950Z" fill="#22C1C3"/>
  <g filter="url(#filter0_i)">
    <path d="M0 1425.29C0 1422.37 2.36751 1420 5.28799 1420H1821.71C1824.63 1420 1827 1422.37 1827 1425.29V1425.29C1827 1436.97 1817.53 1446.44 1805.85 1446.44H21.152C9.47006 1446.44 0 1436.97 0 1425.29V1425.29Z" fill="#E2E2E2"/>
  </g>
  <g filter="url(#filter1_d)">
    <path d="M1796.59 1445.12H27.762L133.522 1454.37H1689.51L1796.59 1445.12Z" fill="#5C5C5C"/>
  </g>
  <g filter="url(#filter2_ii)">
    <path d="M154 532C154 523.163 161.163 516 170 516H1688C1696.84 516 1704 523.163 1704 532V1419H154V532Z" fill="#E2E2E2"/>
  </g>
  <g filter="url(#filter3_i)">
    <circle cx="929" cy="542" r="10" fill="#7A7A7A"/>
  </g>
  <g filter="url(#filter4_d)">
    <path d="M178 599C178 587.954 186.954 579 198 579H1658C1669.05 579 1678 587.954 1678 599V1393.4C1678 1404.45 1669.05 1413.4 1658 1413.4H198C186.954 1413.4 178 1404.45 178 1393.4V599Z" fill="#F6F6F6"/>
  </g>
  <rect x="199" y="651" width="1465" height="745" rx="26" fill="#F6F6F6"/>
  <path d="M178 599C178 587.954 186.954 579 198 579H1658C1669.05 579 1678 587.954 1678 599V634.232H178V599Z" fill="#22C1C3"/>
  <ellipse cx="1615.62" cy="605.63" rx="13.9882" ry="14.7944" fill="#C91D1D"/>
  <ellipse cx="1557.81" cy="605.63" rx="13.9882" ry="14.7944" fill="#D1AF38"/>
  <ellipse cx="1499.99" cy="605.63" rx="13.9883" ry="14.7944" fill="#C4C4C4"/>
  <rect x="1148" y="687" width="468" height="672" rx="15" fill="#22C1C3" fill-opacity="0.06"/>
  <g filter="url(#filter5_d)">
    <rect x="1182" y="840" width="400.154" height="183" rx="25" fill="#E0E0E0"/>
  </g>
  <g clip-path="url(#clip0)">
    <rect x="1244.02" y="997.97" width="337.969" height="0.331524" stroke="#C4C4C4" stroke-width="0.331524" stroke-dasharray="8 8"/>
    <rect x="1244.02" y="972.774" width="337.969" height="0.331524" stroke="#C4C4C4" stroke-width="0.331524" stroke-dasharray="8 8"/>
    <rect x="1244.02" y="947.579" width="337.969" height="0.33152" stroke="#C4C4C4" stroke-width="0.33152" stroke-dasharray="8 8"/>
    <rect x="1244.02" y="922.383" width="337.969" height="0.331522" stroke="#C4C4C4" stroke-width="0.331522" stroke-dasharray="8 8"/>
    <rect x="1244.02" y="897.187" width="337.969" height="0.331522" stroke="#C4C4C4" stroke-width="0.331522" stroke-dasharray="8 8"/>
  </g>
  <mask id="mask0" mask-type="alpha" maskUnits="userSpaceOnUse" x="1243" y="853" width="340" height="171">
    <path d="M1243.85 853.261H1582.15V998C1582.15 1011.81 1570.96 1023 1557.15 1023H1243.85V853.261Z" fill="white"/>
  </mask>
  <g mask="url(#mask0)">
    <path fill-rule="evenodd" clip-rule="evenodd" d="M1243.85 958.889C1243.85 958.889 1256.55 977.25 1274.15 977.25C1291.75 977.25 1309.76 938.131 1335.42 938.131C1361.08 938.131 1367.56 952.054 1390.28 952.054C1413 952.054 1425.54 878.864 1459.08 878.864C1492.62 878.864 1501.37 904.294 1531.51 904.294C1561.65 904.294 1582.15 928.057 1582.15 928.057V1015.14C1582.15 1015.14 1579.47 1023 1567.14 1023C1554.81 1023 1243.85 1023 1243.85 1023V958.889Z" fill="url(#paint0_linear)"/>
    <g filter="url(#filter6_d)">
      <path d="M1243.04 958.508C1243.04 958.508 1256.55 977.25 1274.15 977.25C1291.75 977.25 1309.76 938.131 1335.42 938.131C1361.08 938.131 1367.56 952.054 1390.28 952.054C1413 952.054 1425.54 878.864 1459.08 878.864C1492.62 878.864 1501.37 904.294 1531.51 904.294C1561.65 904.294 1582.15 928.057 1582.15 928.057" stroke="#22C1C3" stroke-width="2" stroke-linecap="round" stroke-linejoin="round"/>
    </g>
    <g filter="url(#filter7_d)">
      <ellipse cx="1337.26" cy="938.131" rx="6.31157" ry="3.31522" fill="white"/>
      <path d="M1342.58 938.131C1342.58 938.489 1342.28 939.055 1341.26 939.59C1340.29 940.1 1338.88 940.446 1337.26 940.446C1335.65 940.446 1334.24 940.1 1333.27 939.59C1332.25 939.055 1331.95 938.489 1331.95 938.131C1331.95 937.772 1332.25 937.207 1333.27 936.672C1334.24 936.161 1335.65 935.815 1337.26 935.815C1338.88 935.815 1340.29 936.161 1341.26 936.672C1342.28 937.207 1342.58 937.772 1342.58 938.131Z" stroke="#22C1C3" stroke-width="2"/>
    </g>
  </g>
  <g filter="url(#filter8_d)">
    <rect x="1187" y="1094" width="391.846" height="215" rx="25" fill="#E0E0E0"/>
  </g>
  <rect x="1219.14" y="1116.3" width="12.3611" height="129.357" rx="6" fill="#EDEDED"/>
  <rect x="1271.06" y="1116.3" width="12.3611" height="129.357" rx="6" fill="#EDEDED"/>
  <rect x="1322.97" y="1116.3" width="12.3611" height="129.357" rx="6" fill="#EDEDED"/>
  <rect x="1374.89" y="1116.3" width="12.3611" height="129.357" rx="6" fill="#EDEDED"/>
  <rect x="1426.8" y="1116.3" width="12.3611" height="129.357" rx="6" fill="#EDEDED"/>
  <rect x="1478.72" y="1116.3" width="12.3611" height="129.357" rx="6" fill="#EDEDED"/>
  <rect x="1530.64" y="1116.3" width="12.3611" height="129.357" rx="6" fill="#EDEDED"/>
  <rect x="1219.14" y="1178.75" width="12.3611" height="66.9087" rx="6" fill="#22C1C3"/>
  <rect x="1219.14" y="1148.42" width="12.3611" height="26.7635" rx="6" fill="#D1AF38"/>
  <rect x="1271.06" y="1180.54" width="12.3611" height="26.7635" rx="6" fill="#D1AF38"/>
  <rect x="1322.97" y="1168.94" width="12.3611" height="26.7635" rx="6" fill="#D1AF38"/>
  <rect x="1374.89" y="1127.01" width="12.3611" height="26.7635" rx="6" fill="#D1AF38"/>
  <rect x="1426.8" y="1157.34" width="12.3611" height="26.7635" rx="6" fill="#D1AF38"/>
  <rect x="1271.06" y="1210.87" width="12.3611" height="34.7925" rx="6" fill="#22C1C3"/>
  <rect x="1322.97" y="1199.27" width="12.3611" height="46.39" rx="6" fill="#22C1C3"/>
  <rect x="1374.89" y="1157.34" width="12.3611" height="88.3195" rx="6" fill="#22C1C3"/>
  <rect x="1426.8" y="1187.67" width="12.3611" height="57.9876" rx="6" fill="#22C1C3"/>
  <rect x="1478.72" y="1185.89" width="12.3611" height="26.7635" rx="6" fill="#D1AF38"/>
  <rect x="1478.72" y="1216.22" width="12.3611" height="29.4398" rx="6" fill="#22C1C3"/>
  <rect x="1530.64" y="1157.34" width="12.3611" height="26.7635" rx="6" fill="#D1AF38"/>
  <rect x="1530.64" y="1187.67" width="12.3611" height="57.9876" rx="6" fill="#22C1C3"/>
  <path d="M1209.66 772.123C1209.66 774.572 1209.23 776.72 1208.36 778.565C1207.5 780.411 1206.25 781.835 1204.64 782.838C1203.03 783.84 1201.18 784.342 1199.1 784.342C1197.04 784.342 1195.2 783.846 1193.58 782.855C1191.96 781.864 1190.71 780.451 1189.82 778.617C1188.93 776.771 1188.48 774.652 1188.47 772.259V771.029C1188.47 768.579 1188.91 766.426 1189.79 764.569C1190.67 762.7 1191.92 761.271 1193.53 760.279C1195.15 759.277 1196.99 758.775 1199.07 758.775C1201.14 758.775 1202.98 759.277 1204.59 760.279C1206.2 761.271 1207.45 762.7 1208.33 764.569C1209.22 766.426 1209.66 768.574 1209.66 771.012V772.123ZM1204.47 770.995C1204.47 768.386 1204 766.403 1203.06 765.047C1202.13 763.692 1200.8 763.014 1199.07 763.014C1197.35 763.014 1196.02 763.686 1195.08 765.03C1194.15 766.363 1193.68 768.323 1193.67 770.909V772.123C1193.67 774.663 1194.13 776.634 1195.07 778.036C1196 779.437 1197.35 780.138 1199.1 780.138C1200.82 780.138 1202.14 779.465 1203.06 778.121C1203.99 776.765 1204.45 774.794 1204.47 772.208V770.995ZM1219.98 777.967L1223.42 765.509H1228.58L1222.34 784H1217.62L1211.39 765.509H1216.55L1219.98 777.967ZM1239.04 784.342C1236.33 784.342 1234.12 783.51 1232.41 781.847C1230.71 780.183 1229.86 777.967 1229.86 775.199V774.72C1229.86 772.863 1230.22 771.205 1230.94 769.747C1231.66 768.277 1232.67 767.149 1233.98 766.363C1235.3 765.566 1236.81 765.167 1238.49 765.167C1241.02 765.167 1243.01 765.965 1244.46 767.56C1245.91 769.155 1246.64 771.416 1246.64 774.344V776.361H1234.87C1235.03 777.569 1235.51 778.537 1236.3 779.266C1237.11 779.995 1238.13 780.36 1239.36 780.36C1241.27 780.36 1242.75 779.671 1243.82 778.292L1246.25 781.009C1245.51 782.057 1244.51 782.878 1243.24 783.47C1241.98 784.051 1240.58 784.342 1239.04 784.342ZM1238.47 769.166C1237.49 769.166 1236.7 769.496 1236.08 770.157C1235.48 770.818 1235.09 771.764 1234.92 772.994H1241.79V772.601C1241.77 771.507 1241.47 770.664 1240.9 770.072C1240.33 769.468 1239.52 769.166 1238.47 769.166ZM1259.85 770.14C1259.18 770.049 1258.59 770.003 1258.08 770.003C1256.21 770.003 1254.98 770.636 1254.4 771.9V784H1249.46V765.509H1254.13L1254.27 767.713C1255.26 766.016 1256.63 765.167 1258.38 765.167C1258.93 765.167 1259.44 765.241 1259.92 765.389L1259.85 770.14ZM1269.48 777.967L1272.91 765.509H1278.07L1271.83 784H1267.12L1260.88 765.509H1266.04L1269.48 777.967ZM1285.47 784H1280.52V765.509H1285.47V784ZM1280.23 760.724C1280.23 759.983 1280.47 759.374 1280.96 758.895C1281.46 758.417 1282.14 758.177 1282.99 758.177C1283.84 758.177 1284.51 758.417 1285.01 758.895C1285.51 759.374 1285.76 759.983 1285.76 760.724C1285.76 761.476 1285.51 762.091 1284.99 762.569C1284.49 763.048 1283.83 763.287 1282.99 763.287C1282.16 763.287 1281.49 763.048 1280.98 762.569C1280.48 762.091 1280.23 761.476 1280.23 760.724ZM1298.07 784.342C1295.36 784.342 1293.15 783.51 1291.44 781.847C1289.74 780.183 1288.89 777.967 1288.89 775.199V774.72C1288.89 772.863 1289.25 771.205 1289.97 769.747C1290.68 768.277 1291.7 767.149 1293.01 766.363C1294.33 765.566 1295.83 765.167 1297.52 765.167C1300.05 765.167 1302.04 765.965 1303.48 767.56C1304.94 769.155 1305.67 771.416 1305.67 774.344V776.361H1293.9C1294.06 777.569 1294.53 778.537 1295.33 779.266C1296.14 779.995 1297.16 780.36 1298.39 780.36C1300.29 780.36 1301.78 779.671 1302.85 778.292L1305.28 781.009C1304.54 782.057 1303.54 782.878 1302.27 783.47C1301.01 784.051 1299.6 784.342 1298.07 784.342ZM1297.5 769.166C1296.52 769.166 1295.73 769.496 1295.11 770.157C1294.51 770.818 1294.12 771.764 1293.95 772.994H1300.82V772.601C1300.8 771.507 1300.5 770.664 1299.93 770.072C1299.36 769.468 1298.55 769.166 1297.5 769.166ZM1324.57 777.284L1327 765.509H1331.77L1327.05 784H1322.92L1319.41 772.362L1315.91 784H1311.79L1307.07 765.509H1311.84L1314.25 777.267L1317.63 765.509H1321.21L1324.57 777.284Z" fill="black"/>
  <rect x="687" y="687" width="411" height="672" rx="15" fill="#EDEDED"/>
  <path d="M1003.3 899.99C1003.3 962.717 952.622 1013.47 890.229 1013.47C827.837 1013.47 777.163 962.717 777.163 899.99C777.163 837.262 827.837 786.507 890.229 786.507C952.622 786.507 1003.3 837.262 1003.3 899.99Z" stroke="#D2D2D2" stroke-width="35"/>
  <path d="M986.257 810.49C987.424 809.319 987.426 807.422 986.233 806.277C965.34 786.231 938.519 773.483 909.765 769.984C880.023 766.366 849.929 772.853 824.294 788.409C798.659 803.966 778.961 827.694 768.349 855.801C758.091 882.97 756.894 912.716 764.89 940.584C765.348 942.179 767.036 943.061 768.62 942.565L811.977 928.984C813.556 928.49 814.431 926.811 813.997 925.214C809.411 908.362 810.249 890.457 816.435 874.073C822.974 856.753 835.112 842.132 850.908 832.547C866.704 822.961 885.247 818.964 903.574 821.194C920.905 823.302 937.097 830.864 949.845 842.755C951.06 843.887 952.961 843.892 954.133 842.716L986.257 810.49Z" fill="#D1AF38"/>
  <rect x="907.26" y="1128.93" width="43.1436" height="198.183" rx="2" fill="#D2D2D2"/>
  <rect x="907.26" y="1206.38" width="43.1436" height="120.732" rx="2" fill="#B6B3B3"/>
  <rect x="991.276" y="1062.86" width="43.1436" height="264.244" rx="2" fill="#D2D2D2"/>
  <rect x="991.276" y="1158.54" width="43.1436" height="168.569" rx="2" fill="#B6B3B3"/>
  <rect x="739.227" y="1128.93" width="43.1437" height="198.183" rx="2" fill="#D2D2D2"/>
  <rect x="739.227" y="1194.99" width="43.1437" height="132.122" rx="2" fill="#B6B3B3"/>
  <rect x="823.243" y="1085.64" width="43.1437" height="241.465" rx="2" fill="#D2D2D2"/>
  <rect x="823.243" y="1176.76" width="43.1437" height="150.346" rx="2" fill="#B6B3B3"/>
  <rect x="222" y="687" width="416" height="672" rx="15" fill="#EDEDED"/>
  <path d="M275.278 793.472C275.278 792.503 274.937 791.763 274.253 791.25C273.569 790.726 272.339 790.179 270.562 789.609C268.784 789.028 267.377 788.459 266.34 787.9C263.515 786.374 262.102 784.317 262.102 781.731C262.102 780.387 262.478 779.19 263.23 778.142C263.993 777.083 265.081 776.257 266.494 775.664C267.918 775.072 269.513 774.775 271.279 774.775C273.057 774.775 274.64 775.1 276.03 775.75C277.42 776.388 278.497 777.293 279.26 778.467C280.035 779.64 280.422 780.973 280.422 782.466H275.295C275.295 781.326 274.937 780.444 274.219 779.817C273.501 779.179 272.493 778.86 271.194 778.86C269.941 778.86 268.966 779.128 268.271 779.663C267.576 780.187 267.229 780.882 267.229 781.748C267.229 782.557 267.633 783.235 268.442 783.782C269.263 784.329 270.465 784.841 272.048 785.32C274.965 786.197 277.09 787.285 278.423 788.584C279.756 789.883 280.422 791.501 280.422 793.438C280.422 795.591 279.608 797.283 277.979 798.513C276.349 799.732 274.156 800.342 271.399 800.342C269.485 800.342 267.742 799.994 266.169 799.299C264.597 798.593 263.395 797.63 262.563 796.411C261.743 795.192 261.333 793.779 261.333 792.173H266.477C266.477 794.919 268.118 796.292 271.399 796.292C272.618 796.292 273.569 796.047 274.253 795.557C274.937 795.055 275.278 794.36 275.278 793.472ZM289.497 776.963V781.509H292.659V785.132H289.497V794.36C289.497 795.044 289.628 795.534 289.89 795.83C290.152 796.126 290.653 796.274 291.394 796.274C291.941 796.274 292.425 796.235 292.847 796.155V799.897C291.878 800.194 290.881 800.342 289.856 800.342C286.392 800.342 284.626 798.593 284.558 795.095V785.132H281.858V781.509H284.558V776.963H289.497ZM306.125 800C305.898 799.556 305.732 799.003 305.63 798.342C304.434 799.675 302.878 800.342 300.964 800.342C299.153 800.342 297.649 799.818 296.453 798.77C295.268 797.721 294.675 796.4 294.675 794.805C294.675 792.845 295.399 791.341 296.846 790.293C298.304 789.245 300.406 788.715 303.152 788.704H305.425V787.644C305.425 786.79 305.203 786.106 304.758 785.593C304.325 785.081 303.636 784.824 302.69 784.824C301.859 784.824 301.204 785.024 300.725 785.422C300.258 785.821 300.024 786.368 300.024 787.063H295.085C295.085 785.992 295.416 785.001 296.077 784.089C296.737 783.178 297.672 782.466 298.879 781.953C300.087 781.429 301.443 781.167 302.947 781.167C305.225 781.167 307.031 781.742 308.364 782.893C309.709 784.032 310.381 785.639 310.381 787.712V795.728C310.392 797.482 310.637 798.809 311.116 799.709V800H306.125ZM302.041 796.565C302.77 796.565 303.442 796.405 304.058 796.086C304.673 795.756 305.129 795.317 305.425 794.771V791.592H303.579C301.107 791.592 299.791 792.446 299.631 794.155L299.614 794.446C299.614 795.061 299.831 795.568 300.264 795.967C300.697 796.366 301.289 796.565 302.041 796.565ZM320.088 776.963V781.509H323.25V785.132H320.088V794.36C320.088 795.044 320.219 795.534 320.481 795.83C320.743 796.126 321.244 796.274 321.985 796.274C322.532 796.274 323.016 796.235 323.438 796.155V799.897C322.469 800.194 321.472 800.342 320.447 800.342C316.983 800.342 315.217 798.593 315.149 795.095V785.132H312.449V781.509H315.149V776.963H320.088ZM331.213 800H326.257V781.509H331.213V800ZM325.967 776.724C325.967 775.983 326.212 775.374 326.702 774.895C327.203 774.417 327.881 774.177 328.735 774.177C329.578 774.177 330.251 774.417 330.752 774.895C331.253 775.374 331.504 775.983 331.504 776.724C331.504 777.476 331.248 778.091 330.735 778.569C330.234 779.048 329.567 779.287 328.735 779.287C327.904 779.287 327.231 779.048 326.719 778.569C326.217 778.091 325.967 777.476 325.967 776.724ZM345.312 794.89C345.312 794.286 345.011 793.813 344.407 793.472C343.814 793.118 342.857 792.805 341.536 792.532C337.138 791.609 334.939 789.74 334.939 786.926C334.939 785.286 335.617 783.918 336.973 782.825C338.34 781.72 340.123 781.167 342.322 781.167C344.669 781.167 346.543 781.72 347.944 782.825C349.357 783.93 350.063 785.365 350.063 787.131H345.125C345.125 786.425 344.897 785.844 344.441 785.388C343.985 784.921 343.273 784.688 342.305 784.688C341.473 784.688 340.829 784.875 340.374 785.251C339.918 785.627 339.69 786.106 339.69 786.687C339.69 787.234 339.946 787.678 340.459 788.02C340.983 788.35 341.86 788.641 343.091 788.892C344.321 789.131 345.358 789.404 346.201 789.712C348.81 790.669 350.115 792.327 350.115 794.685C350.115 796.371 349.391 797.738 347.944 798.787C346.497 799.823 344.629 800.342 342.339 800.342C340.789 800.342 339.411 800.068 338.203 799.521C337.007 798.963 336.067 798.206 335.383 797.249C334.7 796.28 334.358 795.238 334.358 794.121H339.041C339.086 794.998 339.411 795.671 340.015 796.138C340.618 796.605 341.427 796.838 342.441 796.838C343.387 796.838 344.099 796.662 344.578 796.309C345.068 795.944 345.312 795.471 345.312 794.89ZM359.224 776.963V781.509H362.385V785.132H359.224V794.36C359.224 795.044 359.355 795.534 359.617 795.83C359.879 796.126 360.38 796.274 361.121 796.274C361.667 796.274 362.152 796.235 362.573 796.155V799.897C361.605 800.194 360.608 800.342 359.583 800.342C356.119 800.342 354.353 798.593 354.285 795.095V785.132H351.584V781.509H354.285V776.963H359.224ZM370.349 800H365.393V781.509H370.349V800ZM365.103 776.724C365.103 775.983 365.347 775.374 365.837 774.895C366.339 774.417 367.017 774.177 367.871 774.177C368.714 774.177 369.386 774.417 369.888 774.895C370.389 775.374 370.64 775.983 370.64 776.724C370.64 777.476 370.383 778.091 369.871 778.569C369.369 779.048 368.703 779.287 367.871 779.287C367.039 779.287 366.367 779.048 365.854 778.569C365.353 778.091 365.103 777.476 365.103 776.724ZM382.124 796.36C383.035 796.36 383.776 796.109 384.346 795.608C384.915 795.107 385.212 794.44 385.234 793.608H389.866C389.854 794.862 389.513 796.012 388.84 797.061C388.168 798.097 387.245 798.906 386.072 799.487C384.91 800.057 383.622 800.342 382.209 800.342C379.566 800.342 377.481 799.504 375.955 797.83C374.428 796.143 373.665 793.819 373.665 790.857V790.532C373.665 787.684 374.422 785.411 375.938 783.713C377.453 782.016 379.532 781.167 382.175 781.167C384.488 781.167 386.34 781.828 387.729 783.149C389.131 784.46 389.843 786.208 389.866 788.396H385.234C385.212 787.439 384.915 786.664 384.346 786.072C383.776 785.468 383.024 785.166 382.09 785.166C380.939 785.166 380.068 785.588 379.475 786.431C378.894 787.262 378.604 788.618 378.604 790.498V791.011C378.604 792.913 378.894 794.281 379.475 795.112C380.056 795.944 380.939 796.36 382.124 796.36ZM402.7 794.89C402.7 794.286 402.398 793.813 401.794 793.472C401.202 793.118 400.245 792.805 398.923 792.532C394.526 791.609 392.327 789.74 392.327 786.926C392.327 785.286 393.005 783.918 394.36 782.825C395.728 781.72 397.511 781.167 399.709 781.167C402.056 781.167 403.931 781.72 405.332 782.825C406.745 783.93 407.451 785.365 407.451 787.131H402.512C402.512 786.425 402.284 785.844 401.829 785.388C401.373 784.921 400.661 784.688 399.692 784.688C398.861 784.688 398.217 784.875 397.761 785.251C397.306 785.627 397.078 786.106 397.078 786.687C397.078 787.234 397.334 787.678 397.847 788.02C398.371 788.35 399.248 788.641 400.479 788.892C401.709 789.131 402.746 789.404 403.589 789.712C406.198 790.669 407.502 792.327 407.502 794.685C407.502 796.371 406.779 797.738 405.332 798.787C403.885 799.823 402.017 800.342 399.727 800.342C398.177 800.342 396.799 800.068 395.591 799.521C394.395 798.963 393.455 798.206 392.771 797.249C392.087 796.28 391.746 795.238 391.746 794.121H396.428C396.474 794.998 396.799 795.671 397.402 796.138C398.006 796.605 398.815 796.838 399.829 796.838C400.775 796.838 401.487 796.662 401.965 796.309C402.455 795.944 402.7 795.471 402.7 794.89Z" fill="black"/>
  <rect x="247.846" y="840" width="361.846" height="205" rx="30" fill="#E0E0E0"/>
  <rect x="272.462" y="942" width="25.8462" height="81" rx="10" fill="#22C1C3"/>
  <rect x="314.308" y="913" width="25.8462" height="81" rx="10" fill="#C4C4C4"/>
  <rect x="356.154" y="892" width="25.8462" height="100" rx="10" fill="#C4C4C4"/>
  <rect x="396.769" y="919" width="25.8462" height="100" rx="10" fill="#C4C4C4"/>
  <rect x="441.077" y="879" width="25.8462" height="122" rx="10" fill="#C4C4C4"/>
  <rect x="480.462" y="936" width="25.8461" height="93" rx="10" fill="#22C1C3"/>
  <rect x="523.538" y="926" width="25.8462" height="93" rx="10" fill="#C4C4C4"/>
  <rect x="562.923" y="894" width="25.8462" height="93" rx="10" fill="#C4C4C4"/>
  <rect x="247.846" y="1173" width="361.846" height="134" rx="20" fill="#E0E0E0"/>
  <rect x="354.923" y="1269" width="220.308" height="15" rx="7.5" fill="#C4C4C4"/>
  <rect x="354.923" y="1268" width="94.7693" height="17" rx="8.5" fill="#22C1C3"/>
  <path d="M324.892 1213.59C325.208 1212.67 325.385 1211.68 325.385 1210.64C325.385 1206.12 322.077 1202.45 318 1202.45C316.485 1202.45 315.069 1202.97 313.9 1203.84C311.769 1199.74 307.792 1197 303.231 1197C296.431 1197 290.923 1203.1 290.923 1210.64C290.923 1210.87 290.931 1211.1 290.938 1211.33C286.631 1213.01 283.538 1217.56 283.538 1222.91C283.538 1229.68 288.5 1235.18 294.615 1235.18H322.923C328.362 1235.18 332.769 1230.3 332.769 1224.27C332.769 1219 329.385 1214.59 324.892 1213.59ZM314.669 1221.14L306.562 1230.13C306.085 1230.66 305.3 1230.66 304.823 1230.13L296.715 1221.14C295.938 1220.28 296.492 1218.82 297.585 1218.82H302.615V1209.27C302.615 1208.52 303.169 1207.91 303.846 1207.91H307.538C308.215 1207.91 308.769 1208.52 308.769 1209.27V1218.82H313.8C314.892 1218.82 315.446 1220.28 314.669 1221.14V1221.14Z" fill="#22C1C3"/>
  <path d="M362.346 1221V1206.78H366.721C367.971 1206.78 369.088 1207.06 370.071 1207.63C371.061 1208.19 371.832 1208.99 372.385 1210.03C372.939 1211.07 373.216 1212.25 373.216 1213.57V1214.22C373.216 1215.54 372.942 1216.72 372.395 1217.75C371.855 1218.78 371.09 1219.57 370.1 1220.14C369.111 1220.71 367.994 1220.99 366.751 1221H362.346ZM365.276 1209.15V1218.65H366.692C367.838 1218.65 368.714 1218.27 369.319 1217.52C369.925 1216.77 370.234 1215.7 370.247 1214.31V1213.56C370.247 1212.11 369.947 1211.02 369.348 1210.28C368.749 1209.53 367.874 1209.15 366.721 1209.15H365.276ZM374.729 1215.62C374.729 1214.57 374.931 1213.64 375.335 1212.82C375.738 1212 376.318 1211.36 377.073 1210.91C377.835 1210.46 378.717 1210.24 379.719 1210.24C381.145 1210.24 382.307 1210.67 383.206 1211.55C384.111 1212.42 384.615 1213.6 384.719 1215.1L384.739 1215.82C384.739 1217.45 384.287 1218.75 383.382 1219.73C382.477 1220.71 381.262 1221.2 379.739 1221.2C378.216 1221.2 376.998 1220.71 376.087 1219.73C375.182 1218.75 374.729 1217.43 374.729 1215.75V1215.62ZM377.552 1215.82C377.552 1216.83 377.74 1217.6 378.118 1218.13C378.496 1218.66 379.036 1218.92 379.739 1218.92C380.423 1218.92 380.956 1218.66 381.341 1218.14C381.725 1217.61 381.917 1216.77 381.917 1215.62C381.917 1214.64 381.725 1213.87 381.341 1213.33C380.956 1212.79 380.416 1212.52 379.719 1212.52C379.029 1212.52 378.496 1212.79 378.118 1213.33C377.74 1213.87 377.552 1214.7 377.552 1215.82ZM395.667 1217.16L397.053 1210.43H399.778L397.083 1221H394.719L392.718 1214.35L390.716 1221H388.362L385.667 1210.43H388.391L389.768 1217.15L391.702 1210.43H393.743L395.667 1217.16ZM403.782 1210.43L403.87 1211.65C404.625 1210.71 405.637 1210.24 406.907 1210.24C408.027 1210.24 408.86 1210.57 409.407 1211.22C409.954 1211.88 410.234 1212.87 410.247 1214.17V1221H407.425V1214.24C407.425 1213.64 407.294 1213.21 407.034 1212.94C406.774 1212.67 406.341 1212.53 405.735 1212.53C404.941 1212.53 404.345 1212.87 403.948 1213.55V1221H401.126V1210.43H403.782ZM415.374 1221H412.542V1206H415.374V1221ZM417.268 1215.62C417.268 1214.57 417.47 1213.64 417.874 1212.82C418.277 1212 418.857 1211.36 419.612 1210.91C420.374 1210.46 421.256 1210.24 422.259 1210.24C423.684 1210.24 424.846 1210.67 425.745 1211.55C426.65 1212.42 427.154 1213.6 427.259 1215.1L427.278 1215.82C427.278 1217.45 426.826 1218.75 425.921 1219.73C425.016 1220.71 423.802 1221.2 422.278 1221.2C420.755 1221.2 419.537 1220.71 418.626 1219.73C417.721 1218.75 417.268 1217.43 417.268 1215.75V1215.62ZM420.091 1215.82C420.091 1216.83 420.279 1217.6 420.657 1218.13C421.035 1218.66 421.575 1218.92 422.278 1218.92C422.962 1218.92 423.496 1218.66 423.88 1218.14C424.264 1217.61 424.456 1216.77 424.456 1215.62C424.456 1214.64 424.264 1213.87 423.88 1213.33C423.496 1212.79 422.955 1212.52 422.259 1212.52C421.568 1212.52 421.035 1212.79 420.657 1213.33C420.279 1213.87 420.091 1214.7 420.091 1215.82ZM435.139 1221C435.009 1220.75 434.915 1220.43 434.856 1220.05C434.173 1220.81 433.284 1221.2 432.19 1221.2C431.155 1221.2 430.296 1220.9 429.612 1220.3C428.935 1219.7 428.596 1218.94 428.596 1218.03C428.596 1216.91 429.01 1216.05 429.837 1215.45C430.67 1214.85 431.871 1214.55 433.44 1214.54H434.739V1213.94C434.739 1213.45 434.612 1213.06 434.358 1212.77C434.111 1212.47 433.717 1212.33 433.177 1212.33C432.701 1212.33 432.327 1212.44 432.053 1212.67C431.787 1212.9 431.653 1213.21 431.653 1213.61H428.831C428.831 1213 429.02 1212.43 429.397 1211.91C429.775 1211.39 430.309 1210.98 430.999 1210.69C431.689 1210.39 432.464 1210.24 433.323 1210.24C434.625 1210.24 435.657 1210.57 436.419 1211.22C437.187 1211.88 437.571 1212.79 437.571 1213.98V1218.56C437.578 1219.56 437.718 1220.32 437.991 1220.83V1221H435.139ZM432.805 1219.04C433.222 1219.04 433.606 1218.95 433.958 1218.76C434.309 1218.57 434.57 1218.32 434.739 1218.01V1216.2H433.684C432.272 1216.2 431.52 1216.68 431.428 1217.66L431.419 1217.83C431.419 1218.18 431.542 1218.47 431.79 1218.7C432.037 1218.92 432.376 1219.04 432.805 1219.04ZM439.3 1215.64C439.3 1213.99 439.667 1212.68 440.403 1211.7C441.145 1210.73 442.158 1210.24 443.44 1210.24C444.469 1210.24 445.318 1210.62 445.989 1211.39V1206H448.821V1221H446.272L446.135 1219.88C445.432 1220.76 444.527 1221.2 443.421 1221.2C442.177 1221.2 441.178 1220.71 440.423 1219.73C439.674 1218.75 439.3 1217.38 439.3 1215.64ZM442.122 1215.84C442.122 1216.83 442.294 1217.59 442.639 1218.12C442.984 1218.65 443.486 1218.91 444.143 1218.91C445.016 1218.91 445.631 1218.54 445.989 1217.81V1213.64C445.637 1212.9 445.029 1212.53 444.163 1212.53C442.802 1212.53 442.122 1213.64 442.122 1215.84Z" fill="black"/>
  <g filter="url(#filter9_d)">
    <g filter="url(#filter10_ii)">
      <rect x="2160" y="456" width="499" height="998" rx="46" fill="#BCBCBC"/>
    </g>
    <path fill-rule="evenodd" clip-rule="evenodd" d="M2271.86 494H2219C2199.67 494 2184 509.67 2184 529V1314.14C2184 1333.47 2199.67 1349.14 2219 1349.14H2600C2619.33 1349.14 2635 1333.47 2635 1314.14V529C2635 509.67 2619.33 494 2600 494H2546.17V505.738C2546.17 527.829 2528.26 545.738 2506.17 545.738H2311.86C2289.77 545.738 2271.86 527.829 2271.86 505.738V494Z" fill="#F6F6F6"/>
    <g clip-path="url(#clip1)">
      <rect width="375" height="812" transform="translate(2222 529)" fill="#F6F6F6"/>
      <g filter="url(#filter11_d)">
        <rect x="2254" y="1205" width="311" height="53" rx="10" fill="#D1AF38"/>
      </g>
      <g filter="url(#filter12_d)">
        <path d="M2255.7 665H2250.83L2250 662.6H2243.43L2242.6 665H2237.72L2244 648.325H2249.4L2255.7 665ZM2248.83 658.85L2246.7 652.575L2244.58 658.85H2248.83ZM2262.63 665.3C2260.73 665.3 2259.16 664.717 2257.91 663.55C2256.66 662.367 2256.03 660.833 2256.03 658.95C2256.03 657.083 2256.66 655.567 2257.91 654.4C2259.16 653.217 2260.73 652.625 2262.63 652.625C2263.83 652.625 2264.85 652.842 2265.68 653.275C2266.53 653.708 2267.16 654.233 2267.58 654.85L2265.08 657.175C2264.56 656.408 2263.81 656.025 2262.81 656.025C2261.99 656.025 2261.31 656.292 2260.78 656.825C2260.25 657.342 2259.98 658.05 2259.98 658.95C2259.98 659.85 2260.25 660.567 2260.78 661.1C2261.31 661.633 2261.99 661.9 2262.81 661.9C2263.77 661.9 2264.53 661.508 2265.08 660.725L2267.58 663.075C2267.16 663.692 2266.53 664.217 2265.68 664.65C2264.85 665.083 2263.83 665.3 2262.63 665.3ZM2275.13 665.3C2273.23 665.3 2271.66 664.717 2270.41 663.55C2269.16 662.367 2268.53 660.833 2268.53 658.95C2268.53 657.083 2269.16 655.567 2270.41 654.4C2271.66 653.217 2273.23 652.625 2275.13 652.625C2276.33 652.625 2277.35 652.842 2278.18 653.275C2279.03 653.708 2279.66 654.233 2280.08 654.85L2277.58 657.175C2277.06 656.408 2276.31 656.025 2275.31 656.025C2274.49 656.025 2273.81 656.292 2273.28 656.825C2272.75 657.342 2272.48 658.05 2272.48 658.95C2272.48 659.85 2272.75 660.567 2273.28 661.1C2273.81 661.633 2274.49 661.9 2275.31 661.9C2276.27 661.9 2277.03 661.508 2277.58 660.725L2280.08 663.075C2279.66 663.692 2279.03 664.217 2278.18 664.65C2277.35 665.083 2276.33 665.3 2275.13 665.3ZM2287.61 665.3C2285.62 665.3 2284.03 664.683 2282.83 663.45C2281.63 662.217 2281.03 660.717 2281.03 658.95C2281.03 657.183 2281.63 655.692 2282.83 654.475C2284.03 653.242 2285.62 652.625 2287.61 652.625C2289.61 652.625 2291.21 653.242 2292.41 654.475C2293.61 655.692 2294.21 657.183 2294.21 658.95C2294.21 660.717 2293.61 662.217 2292.41 663.45C2291.21 664.683 2289.61 665.3 2287.61 665.3ZM2285.68 661.075C2286.15 661.625 2286.79 661.9 2287.61 661.9C2288.42 661.9 2289.06 661.625 2289.53 661.075C2290.01 660.508 2290.26 659.8 2290.26 658.95C2290.26 658.117 2290.01 657.425 2289.53 656.875C2289.06 656.308 2288.42 656.025 2287.61 656.025C2286.79 656.025 2286.15 656.308 2285.68 656.875C2285.23 657.425 2285.01 658.117 2285.01 658.95C2285.01 659.8 2285.23 660.508 2285.68 661.075ZM2308.24 665H2304.39V663.55C2303.35 664.717 2301.96 665.3 2300.21 665.3C2298.88 665.3 2297.88 664.967 2297.21 664.3C2296.56 663.617 2296.24 662.692 2296.24 661.525V652.925H2300.09V659.95C2300.09 661.25 2300.75 661.9 2302.09 661.9C2303 661.9 2303.77 661.508 2304.39 660.725V652.925H2308.24V665ZM2323.06 665H2319.21V658.025C2319.21 656.692 2318.55 656.025 2317.23 656.025C2316.3 656.025 2315.51 656.417 2314.88 657.2V665H2311.03V652.925H2314.88V654.4C2315.9 653.217 2317.29 652.625 2319.06 652.625C2320.39 652.625 2321.39 652.975 2322.06 653.675C2322.72 654.358 2323.06 655.283 2323.06 656.45V665ZM2330.43 665.3C2329.19 665.3 2328.25 665 2327.6 664.4C2326.97 663.8 2326.65 662.917 2326.65 661.75V656.275H2324.65V652.925H2326.65V649.625H2330.48V652.925H2332.93V656.275H2330.48V660.675C2330.48 661.042 2330.57 661.342 2330.75 661.575C2330.95 661.792 2331.22 661.9 2331.55 661.9C2332.03 661.9 2332.36 661.8 2332.53 661.6L2333.28 664.5C2332.71 665.033 2331.76 665.3 2330.43 665.3ZM2347.06 665.3C2345.16 665.3 2343.58 664.717 2342.33 663.55C2341.08 662.367 2340.46 660.833 2340.46 658.95C2340.46 657.083 2341.08 655.567 2342.33 654.4C2343.58 653.217 2345.16 652.625 2347.06 652.625C2348.26 652.625 2349.27 652.842 2350.11 653.275C2350.96 653.708 2351.59 654.233 2352.01 654.85L2349.51 657.175C2348.99 656.408 2348.23 656.025 2347.23 656.025C2346.41 656.025 2345.74 656.292 2345.21 656.825C2344.67 657.342 2344.41 658.05 2344.41 658.95C2344.41 659.85 2344.67 660.567 2345.21 661.1C2345.74 661.633 2346.41 661.9 2347.23 661.9C2348.2 661.9 2348.96 661.508 2349.51 660.725L2352.01 663.075C2351.59 663.692 2350.96 664.217 2350.11 664.65C2349.27 665.083 2348.26 665.3 2347.06 665.3ZM2357.61 665H2353.76V652.925H2357.61V654.4C2358.02 653.9 2358.58 653.475 2359.28 653.125C2359.98 652.775 2360.68 652.6 2361.38 652.6V656.3C2361.08 656.233 2360.76 656.2 2360.43 656.2C2359.9 656.2 2359.35 656.308 2358.78 656.525C2358.23 656.725 2357.84 656.983 2357.61 657.3V665ZM2368.93 665.3C2367.03 665.3 2365.46 664.725 2364.21 663.575C2362.96 662.408 2362.33 660.867 2362.33 658.95C2362.33 657.167 2362.93 655.667 2364.13 654.45C2365.35 653.233 2366.89 652.625 2368.76 652.625C2370.57 652.625 2372.06 653.242 2373.21 654.475C2374.36 655.692 2374.93 657.317 2374.93 659.35V660.175H2366.33C2366.45 660.775 2366.77 661.283 2367.31 661.7C2367.84 662.117 2368.52 662.325 2369.36 662.325C2369.82 662.325 2370.36 662.233 2370.96 662.05C2371.57 661.85 2372.04 661.6 2372.36 661.3L2373.98 663.7C2373.4 664.217 2372.65 664.617 2371.73 664.9C2370.83 665.167 2369.9 665.3 2368.93 665.3ZM2371.26 657.675C2371.19 657.142 2370.96 656.667 2370.56 656.25C2370.16 655.817 2369.56 655.6 2368.76 655.6C2368.01 655.6 2367.43 655.808 2367.03 656.225C2366.63 656.642 2366.38 657.125 2366.28 657.675H2371.26ZM2387.8 665H2383.95V663.8C2383.57 664.25 2383.04 664.617 2382.35 664.9C2381.69 665.167 2380.97 665.3 2380.2 665.3C2379.15 665.3 2378.19 664.958 2377.33 664.275C2376.48 663.575 2376.05 662.592 2376.05 661.325C2376.05 659.992 2376.47 659.017 2377.3 658.4C2378.14 657.767 2379.1 657.45 2380.2 657.45C2381.95 657.45 2383.2 657.917 2383.95 658.85V657.4C2383.95 656.867 2383.74 656.442 2383.3 656.125C2382.87 655.808 2382.27 655.65 2381.5 655.65C2380.22 655.65 2379.08 656.075 2378.08 656.925L2376.7 654.5C2378.17 653.25 2379.99 652.625 2382.18 652.625C2382.94 652.625 2383.64 652.708 2384.28 652.875C2384.93 653.025 2385.52 653.275 2386.05 653.625C2386.6 653.975 2387.03 654.475 2387.33 655.125C2387.64 655.775 2387.8 656.55 2387.8 657.45V665ZM2381.8 662.775C2382.84 662.775 2383.55 662.483 2383.95 661.9V660.825C2383.54 660.258 2382.82 659.975 2381.8 659.975C2381.25 659.975 2380.79 660.1 2380.43 660.35C2380.06 660.583 2379.88 660.925 2379.88 661.375C2379.88 661.825 2380.06 662.175 2380.43 662.425C2380.79 662.658 2381.25 662.775 2381.8 662.775ZM2395.17 665.3C2393.94 665.3 2393 665 2392.35 664.4C2391.71 663.8 2391.4 662.917 2391.4 661.75V656.275H2389.4V652.925H2391.4V649.625H2395.22V652.925H2397.67V656.275H2395.22V660.675C2395.22 661.042 2395.31 661.342 2395.5 661.575C2395.7 661.792 2395.96 661.9 2396.3 661.9C2396.78 661.9 2397.1 661.8 2397.27 661.6L2398.02 664.5C2397.45 665.033 2396.5 665.3 2395.17 665.3ZM2403.08 651.2C2402.66 651.633 2402.15 651.85 2401.53 651.85C2400.91 651.85 2400.39 651.633 2399.96 651.2C2399.54 650.767 2399.33 650.242 2399.33 649.625C2399.33 649.008 2399.54 648.492 2399.96 648.075C2400.39 647.642 2400.91 647.425 2401.53 647.425C2402.15 647.425 2402.66 647.642 2403.08 648.075C2403.51 648.492 2403.73 649.008 2403.73 649.625C2403.73 650.242 2403.51 650.767 2403.08 651.2ZM2403.46 665H2399.61V652.925H2403.46V665ZM2412.02 665.3C2410.04 665.3 2408.45 664.683 2407.25 663.45C2406.05 662.217 2405.45 660.717 2405.45 658.95C2405.45 657.183 2406.05 655.692 2407.25 654.475C2408.45 653.242 2410.04 652.625 2412.02 652.625C2414.02 652.625 2415.62 653.242 2416.82 654.475C2418.02 655.692 2418.62 657.183 2418.62 658.95C2418.62 660.717 2418.02 662.217 2416.82 663.45C2415.62 664.683 2414.02 665.3 2412.02 665.3ZM2410.1 661.075C2410.56 661.625 2411.2 661.9 2412.02 661.9C2412.84 661.9 2413.48 661.625 2413.95 661.075C2414.43 660.508 2414.67 659.8 2414.67 658.95C2414.67 658.117 2414.43 657.425 2413.95 656.875C2413.48 656.308 2412.84 656.025 2412.02 656.025C2411.2 656.025 2410.56 656.308 2410.1 656.875C2409.65 657.425 2409.42 658.117 2409.42 658.95C2409.42 659.8 2409.65 660.508 2410.1 661.075ZM2432.68 665H2428.83V658.025C2428.83 656.692 2428.17 656.025 2426.85 656.025C2425.92 656.025 2425.13 656.417 2424.5 657.2V665H2420.65V652.925H2424.5V654.4C2425.52 653.217 2426.91 652.625 2428.68 652.625C2430.01 652.625 2431.01 652.975 2431.68 653.675C2432.34 654.358 2432.68 655.283 2432.68 656.45V665Z" fill="#000001"/>
      </g>
      <path d="M2260.27 616H2254.06L2246.19 605.184V616H2239.73V594.656H2246.38L2253.81 604.768V594.656H2260.27V616ZM2271.15 616.384C2268.68 616.384 2266.62 615.648 2264.98 614.176C2263.35 612.704 2262.54 610.731 2262.54 608.256C2262.54 605.973 2263.33 604.053 2264.91 602.496C2266.49 600.939 2268.51 600.16 2270.96 600.16C2273.29 600.16 2275.21 600.949 2276.72 602.528C2278.23 604.085 2278.99 606.197 2278.99 608.864V610.048H2268.5C2268.67 610.581 2269.04 611.04 2269.62 611.424C2270.19 611.808 2270.93 612 2271.82 612C2272.31 612 2272.93 611.893 2273.68 611.68C2274.45 611.467 2275.01 611.211 2275.38 610.912L2277.74 614.464C2277.02 615.083 2276.05 615.563 2274.83 615.904C2273.62 616.224 2272.39 616.384 2271.15 616.384ZM2273.52 606.4C2273.22 605.163 2272.37 604.544 2270.96 604.544C2269.62 604.544 2268.77 605.163 2268.43 606.4H2273.52ZM2301.04 616H2294.77L2292.24 607.36L2289.74 616H2283.47L2278.99 600.544H2284.91L2286.96 609.056L2289.68 600.544H2294.83L2297.52 609.056L2299.57 600.544H2305.52L2301.04 616ZM2331.07 616H2325.31V614.272C2324.03 615.68 2322.26 616.384 2320 616.384C2318.29 616.384 2317.01 615.936 2316.16 615.04C2315.31 614.144 2314.88 612.992 2314.88 611.584V600.544H2320.64V609.12C2320.64 610.571 2321.39 611.296 2322.88 611.296C2323.78 611.296 2324.59 610.891 2325.31 610.08V600.544H2331.07V616ZM2340.56 616.384C2339.15 616.384 2337.74 616.171 2336.34 615.744C2334.93 615.296 2333.81 614.72 2332.98 614.016L2335.28 610.144C2335.9 610.635 2336.77 611.083 2337.9 611.488C2339.03 611.893 2340.02 612.096 2340.85 612.096C2341.87 612.096 2342.38 611.872 2342.38 611.424C2342.38 611.211 2342.16 611.04 2341.71 610.912C2341.28 610.784 2340.75 610.699 2340.11 610.656C2339.47 610.592 2338.77 610.464 2338 610.272C2337.23 610.08 2336.53 609.835 2335.89 609.536C2335.25 609.216 2334.7 608.704 2334.26 608C2333.83 607.296 2333.62 606.443 2333.62 605.44C2333.62 603.968 2334.22 602.72 2335.44 601.696C2336.68 600.672 2338.37 600.16 2340.53 600.16C2342.98 600.16 2345.21 600.821 2347.22 602.144L2345.1 605.888C2344.57 605.461 2343.89 605.088 2343.06 604.768C2342.24 604.448 2341.41 604.288 2340.56 604.288C2340.15 604.288 2339.81 604.363 2339.54 604.512C2339.26 604.64 2339.12 604.789 2339.12 604.96C2339.12 605.173 2339.42 605.333 2340.02 605.44C2340.61 605.547 2341.34 605.675 2342.19 605.824C2343.07 605.973 2343.93 606.197 2344.78 606.496C2345.66 606.795 2346.39 607.339 2346.99 608.128C2347.59 608.896 2347.89 609.877 2347.89 611.072C2347.89 612.629 2347.23 613.909 2345.9 614.912C2344.58 615.893 2342.8 616.384 2340.56 616.384ZM2357.53 616.384C2355.05 616.384 2352.99 615.648 2351.35 614.176C2349.73 612.704 2348.92 610.731 2348.92 608.256C2348.92 605.973 2349.71 604.053 2351.29 602.496C2352.87 600.939 2354.88 600.16 2357.34 600.16C2359.66 600.16 2361.58 600.949 2363.1 602.528C2364.61 604.085 2365.37 606.197 2365.37 608.864V610.048H2354.87C2355.04 610.581 2355.42 611.04 2355.99 611.424C2356.57 611.808 2357.3 612 2358.2 612C2358.69 612 2359.31 611.893 2360.06 611.68C2360.82 611.467 2361.39 611.211 2361.75 610.912L2364.12 614.464C2363.39 615.083 2362.42 615.563 2361.21 615.904C2359.99 616.224 2358.76 616.384 2357.53 616.384ZM2359.9 606.4C2359.6 605.163 2358.74 604.544 2357.34 604.544C2355.99 604.544 2355.15 605.163 2354.81 606.4H2359.9ZM2373.11 616H2367.35V600.544H2373.11V602.24C2373.6 601.664 2374.29 601.163 2375.19 600.736C2376.11 600.309 2376.99 600.096 2377.85 600.096V605.6C2377.53 605.493 2377.09 605.44 2376.53 605.44C2374.85 605.44 2373.71 605.803 2373.11 606.528V616Z" fill="#000001"/>
      <circle cx="2409.5" cy="771.5" r="68.5" fill="#D6D6D6"/>
    </g>
    <g filter="url(#filter13_d)">
      <rect x="2225" y="879" width="370" height="39.3333" rx="3" fill="#DCDCDC"/>
    </g>
    <g filter="url(#filter14_d)">
      <rect x="2225" y="957.667" width="370" height="39.3333" rx="3" fill="#DCDCDC"/>
    </g>
    <g filter="url(#filter15_d)">
      <rect x="2225" y="1036.33" width="370" height="39.3333" rx="3" fill="#DCDCDC"/>
    </g>
    <g filter="url(#filter16_d)">
      <rect x="2225" y="1115" width="370" height="39.3333" rx="3" fill="#DCDCDC"/>
    </g>
    <path d="M2262.25 1062.04L2256.74 1057.03C2256.2 1056.54 2255.37 1056.56 2254.86 1057.09L2251.62 1060.43C2250.84 1060.28 2249.27 1059.79 2247.65 1058.17C2246.03 1056.56 2245.55 1054.98 2245.4 1054.21L2248.73 1050.96C2249.26 1050.45 2249.28 1049.61 2248.79 1049.07L2243.78 1043.56C2243.29 1043.02 2242.46 1042.96 2241.9 1043.44L2238.96 1045.97C2238.72 1046.2 2238.58 1046.51 2238.56 1046.85C2238.54 1047.19 2238.16 1055.22 2244.38 1061.45C2249.81 1066.88 2256.61 1067.28 2258.48 1067.28C2258.76 1067.28 2258.93 1067.27 2258.97 1067.27C2259.3 1067.25 2259.61 1067.11 2259.85 1066.87L2262.37 1063.93C2262.85 1063.37 2262.8 1062.53 2262.25 1062.04Z" fill="#B6B3B3"/>
    <path d="M2260.24 965.805H2238.55C2237.06 965.805 2235.84 967.02 2235.84 968.517V984.793C2235.84 986.291 2237.06 987.506 2238.55 987.506H2260.24C2261.73 987.506 2262.95 986.291 2262.95 984.793V968.517C2262.95 967.02 2261.73 965.805 2260.24 965.805ZM2260.24 972.179L2249.4 979.414L2238.55 972.179V968.92L2249.4 976.153L2260.24 968.92V972.179Z" fill="#B6B3B3"/>
    <path d="M2254.82 1121.78H2243.97C2239.49 1121.78 2235.84 1125.43 2235.84 1129.92V1147.55C2235.84 1148.3 2236.45 1148.91 2237.2 1148.91H2254.82C2259.3 1148.91 2262.95 1145.26 2262.95 1140.77V1129.92C2262.95 1125.43 2259.3 1121.78 2254.82 1121.78ZM2252.11 1139.41H2242.62V1136.7H2252.11V1139.41ZM2256.17 1133.99H2242.62V1131.28H2256.17V1133.99Z" fill="#B6B3B3"/>
    <path d="M2244.99 893.58C2244.99 896.385 2247.27 898.667 2250.07 898.667C2252.88 898.667 2255.16 896.385 2255.16 893.58C2255.16 890.776 2252.88 888.494 2250.07 888.494C2247.27 888.494 2244.99 890.776 2244.99 893.58ZM2259.11 909.969H2260.24V908.839C2260.24 904.477 2256.69 900.927 2252.33 900.927H2247.81C2243.45 900.927 2239.91 904.477 2239.91 908.839V909.969H2241.04H2242.17H2257.98H2259.11Z" fill="#B6B3B3"/>
  </g>
  <defs>
    <filter id="filter0_i" x="0" y="1420" width="1827" height="30.4399" filterUnits="userSpaceOnUse" color-interpolation-filters="sRGB">
      <feFlood flood-opacity="0" result="BackgroundImageFix"/>
      <feBlend mode="normal" in="SourceGraphic" in2="BackgroundImageFix" result="shape"/>
      <feColorMatrix in="SourceAlpha" type="matrix" values="0 0 0 0 0 0 0 0 0 0 0 0 0 0 0 0 0 0 127 0" result="hardAlpha"/>
      <feOffset dy="4"/>
      <feGaussianBlur stdDeviation="2"/>
      <feComposite in2="hardAlpha" operator="arithmetic" k2="-1" k3="1"/>
      <feColorMatrix type="matrix" values="0 0 0 0 0 0 0 0 0 0 0 0 0 0 0 0 0 0 0.25 0"/>
      <feBlend mode="normal" in2="shape" result="effect1_innerShadow"/>
    </filter>
    <filter id="filter1_d" x="7.76196" y="1435.12" width="1808.83" height="49.254" filterUnits="userSpaceOnUse" color-interpolation-filters="sRGB">
      <feFlood flood-opacity="0" result="BackgroundImageFix"/>
      <feColorMatrix in="SourceAlpha" type="matrix" values="0 0 0 0 0 0 0 0 0 0 0 0 0 0 0 0 0 0 127 0"/>
      <feOffset dy="10"/>
      <feGaussianBlur stdDeviation="10"/>
      <feColorMatrix type="matrix" values="0 0 0 0 0 0 0 0 0 0 0 0 0 0 0 0 0 0 0.83 0"/>
      <feBlend mode="normal" in2="BackgroundImageFix" result="effect1_dropShadow"/>
      <feBlend mode="normal" in="SourceGraphic" in2="effect1_dropShadow" result="shape"/>
    </filter>
    <filter id="filter2_ii" x="150" y="516" width="1558" height="907" filterUnits="userSpaceOnUse" color-interpolation-filters="sRGB">
      <feFlood flood-opacity="0" result="BackgroundImageFix"/>
      <feBlend mode="normal" in="SourceGraphic" in2="BackgroundImageFix" result="shape"/>
      <feColorMatrix in="SourceAlpha" type="matrix" values="0 0 0 0 0 0 0 0 0 0 0 0 0 0 0 0 0 0 127 0" result="hardAlpha"/>
      <feOffset dx="4"/>
      <feGaussianBlur stdDeviation="2.5"/>
      <feComposite in2="hardAlpha" operator="arithmetic" k2="-1" k3="1"/>
      <feColorMatrix type="matrix" values="0 0 0 0 0 0 0 0 0 0 0 0 0 0 0 0 0 0 0.25 0"/>
      <feBlend mode="normal" in2="shape" result="effect1_innerShadow"/>
      <feColorMatrix in="SourceAlpha" type="matrix" values="0 0 0 0 0 0 0 0 0 0 0 0 0 0 0 0 0 0 127 0" result="hardAlpha"/>
      <feOffset dx="-4" dy="4"/>
      <feGaussianBlur stdDeviation="2.5"/>
      <feComposite in2="hardAlpha" operator="arithmetic" k2="-1" k3="1"/>
      <feColorMatrix type="matrix" values="0 0 0 0 0 0 0 0 0 0 0 0 0 0 0 0 0 0 0.25 0"/>
      <feBlend mode="normal" in2="effect1_innerShadow" result="effect2_innerShadow"/>
    </filter>
    <filter id="filter3_i" x="919" y="532" width="20" height="24" filterUnits="userSpaceOnUse" color-interpolation-filters="sRGB">
      <feFlood flood-opacity="0" result="BackgroundImageFix"/>
      <feBlend mode="normal" in="SourceGraphic" in2="BackgroundImageFix" result="shape"/>
      <feColorMatrix in="SourceAlpha" type="matrix" values="0 0 0 0 0 0 0 0 0 0 0 0 0 0 0 0 0 0 127 0" result="hardAlpha"/>
      <feOffset dy="4"/>
      <feGaussianBlur stdDeviation="2"/>
      <feComposite in2="hardAlpha" operator="arithmetic" k2="-1" k3="1"/>
      <feColorMatrix type="matrix" values="0 0 0 0 0 0 0 0 0 0 0 0 0 0 0 0 0 0 0.25 0"/>
      <feBlend mode="normal" in2="shape" result="effect1_innerShadow"/>
    </filter>
    <filter id="filter4_d" x="174" y="579" width="1508" height="842.402" filterUnits="userSpaceOnUse" color-interpolation-filters="sRGB">
      <feFlood flood-opacity="0" result="BackgroundImageFix"/>
      <feColorMatrix in="SourceAlpha" type="matrix" values="0 0 0 0 0 0 0 0 0 0 0 0 0 0 0 0 0 0 127 0"/>
      <feOffset dy="4"/>
      <feGaussianBlur stdDeviation="2"/>
      <feColorMatrix type="matrix" values="0 0 0 0 0 0 0 0 0 0 0 0 0 0 0 0 0 0 0.25 0"/>
      <feBlend mode="normal" in2="BackgroundImageFix" result="effect1_dropShadow"/>
      <feBlend mode="normal" in="SourceGraphic" in2="effect1_dropShadow" result="shape"/>
    </filter>
    <filter id="filter5_d" x="1178" y="837" width="408.154" height="191" filterUnits="userSpaceOnUse" color-interpolation-filters="sRGB">
      <feFlood flood-opacity="0" result="BackgroundImageFix"/>
      <feColorMatrix in="SourceAlpha" type="matrix" values="0 0 0 0 0 0 0 0 0 0 0 0 0 0 0 0 0 0 127 0"/>
      <feOffset dy="1"/>
      <feGaussianBlur stdDeviation="2"/>
      <feColorMatrix type="matrix" values="0 0 0 0 0.0980392 0 0 0 0 0.156863 0 0 0 0 0.184314 0 0 0 0.28 0"/>
      <feBlend mode="normal" in2="BackgroundImageFix" result="effect1_dropShadow"/>
      <feBlend mode="normal" in="SourceGraphic" in2="effect1_dropShadow" result="shape"/>
    </filter>
    <filter id="filter6_d" x="1238.04" y="873.864" width="349.116" height="108.386" filterUnits="userSpaceOnUse" color-interpolation-filters="sRGB">
      <feFlood flood-opacity="0" result="BackgroundImageFix"/>
      <feColorMatrix in="SourceAlpha" type="matrix" values="0 0 0 0 0 0 0 0 0 0 0 0 0 0 0 0 0 0 127 0"/>
      <feOffset/>
      <feGaussianBlur stdDeviation="2"/>
      <feColorMatrix type="matrix" values="0 0 0 0 0.239216 0 0 0 0 0.835294 0 0 0 0 0.596078 0 0 0 1 0"/>
      <feBlend mode="normal" in2="BackgroundImageFix" result="effect1_dropShadow"/>
      <feBlend mode="normal" in="SourceGraphic" in2="effect1_dropShadow" result="shape"/>
    </filter>
    <filter id="filter7_d" x="1326.95" y="930.815" width="20.6231" height="14.6304" filterUnits="userSpaceOnUse" color-interpolation-filters="sRGB">
      <feFlood flood-opacity="0" result="BackgroundImageFix"/>
      <feColorMatrix in="SourceAlpha" type="matrix" values="0 0 0 0 0 0 0 0 0 0 0 0 0 0 0 0 0 0 127 0"/>
      <feOffset/>
      <feGaussianBlur stdDeviation="2"/>
      <feColorMatrix type="matrix" values="0 0 0 0 0.239216 0 0 0 0 0.835294 0 0 0 0 0.596078 0 0 0 1 0"/>
      <feBlend mode="normal" in2="BackgroundImageFix" result="effect1_dropShadow"/>
      <feBlend mode="normal" in="SourceGraphic" in2="effect1_dropShadow" result="shape"/>
    </filter>
    <filter id="filter8_d" x="1183" y="1091" width="399.846" height="223" filterUnits="userSpaceOnUse" color-interpolation-filters="sRGB">
      <feFlood flood-opacity="0" result="BackgroundImageFix"/>
      <feColorMatrix in="SourceAlpha" type="matrix" values="0 0 0 0 0 0 0 0 0 0 0 0 0 0 0 0 0 0 127 0"/>
      <feOffset dy="1"/>
      <feGaussianBlur stdDeviation="2"/>
      <feColorMatrix type="matrix" values="0 0 0 0 0.0980392 0 0 0 0 0.156863 0 0 0 0 0.184314 0 0 0 0.25 0"/>
      <feBlend mode="normal" in2="BackgroundImageFix" result="effect1_dropShadow"/>
      <feBlend mode="normal" in="SourceGraphic" in2="effect1_dropShadow" result="shape"/>
    </filter>
    <filter id="filter9_d" x="2140" y="446" width="539" height="1038" filterUnits="userSpaceOnUse" color-interpolation-filters="sRGB">
      <feFlood flood-opacity="0" result="BackgroundImageFix"/>
      <feColorMatrix in="SourceAlpha" type="matrix" values="0 0 0 0 0 0 0 0 0 0 0 0 0 0 0 0 0 0 127 0"/>
      <feOffset dy="10"/>
      <feGaussianBlur stdDeviation="10"/>
      <feColorMatrix type="matrix" values="0 0 0 0 0 0 0 0 0 0 0 0 0 0 0 0 0 0 0.25 0"/>
      <feBlend mode="normal" in2="BackgroundImageFix" result="effect1_dropShadow"/>
      <feBlend mode="normal" in="SourceGraphic" in2="effect1_dropShadow" result="shape"/>
    </filter>
    <filter id="filter10_ii" x="2150" y="452" width="519" height="1006" filterUnits="userSpaceOnUse" color-interpolation-filters="sRGB">
      <feFlood flood-opacity="0" result="BackgroundImageFix"/>
      <feBlend mode="normal" in="SourceGraphic" in2="BackgroundImageFix" result="shape"/>
      <feColorMatrix in="SourceAlpha" type="matrix" values="0 0 0 0 0 0 0 0 0 0 0 0 0 0 0 0 0 0 127 0" result="hardAlpha"/>
      <feOffset dx="-10" dy="-4"/>
      <feGaussianBlur stdDeviation="10"/>
      <feComposite in2="hardAlpha" operator="arithmetic" k2="-1" k3="1"/>
      <feColorMatrix type="matrix" values="0 0 0 0 0 0 0 0 0 0 0 0 0 0 0 0 0 0 0.25 0"/>
      <feBlend mode="normal" in2="shape" result="effect1_innerShadow"/>
      <feColorMatrix in="SourceAlpha" type="matrix" values="0 0 0 0 0 0 0 0 0 0 0 0 0 0 0 0 0 0 127 0" result="hardAlpha"/>
      <feOffset dx="10" dy="4"/>
      <feGaussianBlur stdDeviation="10"/>
      <feComposite in2="hardAlpha" operator="arithmetic" k2="-1" k3="1"/>
      <feColorMatrix type="matrix" values="0 0 0 0 0 0 0 0 0 0 0 0 0 0 0 0 0 0 0.25 0"/>
      <feBlend mode="normal" in2="effect1_innerShadow" result="effect2_innerShadow"/>
    </filter>
    <filter id="filter11_d" x="2250" y="1205" width="319" height="61" filterUnits="userSpaceOnUse" color-interpolation-filters="sRGB">
      <feFlood flood-opacity="0" result="BackgroundImageFix"/>
      <feColorMatrix in="SourceAlpha" type="matrix" values="0 0 0 0 0 0 0 0 0 0 0 0 0 0 0 0 0 0 127 0"/>
      <feOffset dy="4"/>
      <feGaussianBlur stdDeviation="2"/>
      <feColorMatrix type="matrix" values="0 0 0 0 0 0 0 0 0 0 0 0 0 0 0 0 0 0 0.25 0"/>
      <feBlend mode="normal" in2="BackgroundImageFix" result="effect1_dropShadow"/>
      <feBlend mode="normal" in="SourceGraphic" in2="effect1_dropShadow" result="shape"/>
    </filter>
    <filter id="filter12_d" x="2157.72" y="569.425" width="354.95" height="177.875" filterUnits="userSpaceOnUse" color-interpolation-filters="sRGB">
      <feFlood flood-opacity="0" result="BackgroundImageFix"/>
      <feColorMatrix in="SourceAlpha" type="matrix" values="0 0 0 0 0 0 0 0 0 0 0 0 0 0 0 0 0 0 127 0"/>
      <feOffset dy="2"/>
      <feGaussianBlur stdDeviation="40"/>
      <feColorMatrix type="matrix" values="0 0 0 0 1 0 0 0 0 1 0 0 0 0 1 0 0 0 1 0"/>
      <feBlend mode="normal" in2="BackgroundImageFix" result="effect1_dropShadow"/>
      <feBlend mode="normal" in="SourceGraphic" in2="effect1_dropShadow" result="shape"/>
    </filter>
    <filter id="filter13_d" x="2221" y="879" width="378" height="47.3333" filterUnits="userSpaceOnUse" color-interpolation-filters="sRGB">
      <feFlood flood-opacity="0" result="BackgroundImageFix"/>
      <feColorMatrix in="SourceAlpha" type="matrix" values="0 0 0 0 0 0 0 0 0 0 0 0 0 0 0 0 0 0 127 0"/>
      <feOffset dy="4"/>
      <feGaussianBlur stdDeviation="2"/>
      <feColorMatrix type="matrix" values="0 0 0 0 0 0 0 0 0 0 0 0 0 0 0 0 0 0 0.25 0"/>
      <feBlend mode="normal" in2="BackgroundImageFix" result="effect1_dropShadow"/>
      <feBlend mode="normal" in="SourceGraphic" in2="effect1_dropShadow" result="shape"/>
    </filter>
    <filter id="filter14_d" x="2221" y="957.667" width="378" height="47.3333" filterUnits="userSpaceOnUse" color-interpolation-filters="sRGB">
      <feFlood flood-opacity="0" result="BackgroundImageFix"/>
      <feColorMatrix in="SourceAlpha" type="matrix" values="0 0 0 0 0 0 0 0 0 0 0 0 0 0 0 0 0 0 127 0"/>
      <feOffset dy="4"/>
      <feGaussianBlur stdDeviation="2"/>
      <feColorMatrix type="matrix" values="0 0 0 0 0 0 0 0 0 0 0 0 0 0 0 0 0 0 0.25 0"/>
      <feBlend mode="normal" in2="BackgroundImageFix" result="effect1_dropShadow"/>
      <feBlend mode="normal" in="SourceGraphic" in2="effect1_dropShadow" result="shape"/>
    </filter>
    <filter id="filter15_d" x="2221" y="1036.33" width="378" height="47.3333" filterUnits="userSpaceOnUse" color-interpolation-filters="sRGB">
      <feFlood flood-opacity="0" result="BackgroundImageFix"/>
      <feColorMatrix in="SourceAlpha" type="matrix" values="0 0 0 0 0 0 0 0 0 0 0 0 0 0 0 0 0 0 127 0"/>
      <feOffset dy="4"/>
      <feGaussianBlur stdDeviation="2"/>
      <feColorMatrix type="matrix" values="0 0 0 0 0 0 0 0 0 0 0 0 0 0 0 0 0 0 0.25 0"/>
      <feBlend mode="normal" in2="BackgroundImageFix" result="effect1_dropShadow"/>
      <feBlend mode="normal" in="SourceGraphic" in2="effect1_dropShadow" result="shape"/>
    </filter>
    <filter id="filter16_d" x="2221" y="1115" width="378" height="47.3333" filterUnits="userSpaceOnUse" color-interpolation-filters="sRGB">
      <feFlood flood-opacity="0" result="BackgroundImageFix"/>
      <feColorMatrix in="SourceAlpha" type="matrix" values="0 0 0 0 0 0 0 0 0 0 0 0 0 0 0 0 0 0 127 0"/>
      <feOffset dy="4"/>
      <feGaussianBlur stdDeviation="2"/>
      <feColorMatrix type="matrix" values="0 0 0 0 0 0 0 0 0 0 0 0 0 0 0 0 0 0 0.25 0"/>
      <feBlend mode="normal" in2="BackgroundImageFix" result="effect1_dropShadow"/>
      <feBlend mode="normal" in="SourceGraphic" in2="effect1_dropShadow" result="shape"/>
    </filter>
    <linearGradient id="paint0_linear" x1="1259.89" y1="878.864" x2="1259.89" y2="1009.33" gradientUnits="userSpaceOnUse">
      <stop stop-color="#B0D8D9" stop-opacity="0.31"/>
      <stop offset="1" stop-color="#22C1C3" stop-opacity="0.31"/>
    </linearGradient>
    <clipPath id="clip0">
      <rect width="371.121" height="110.065" fill="white" transform="translate(1211.03 892.38)"/>
    </clipPath>
    <clipPath id="clip1">
      <rect width="375" height="812" fill="white" transform="translate(2222 529)"/>
    </clipPath>
  </defs>
</svg>
