<svg width="707" height="431" viewBox="0 0 707 431" fill="none"
  xmlns="http://www.w3.org/2000/svg">
  <g filter="url(#filter0_d)">
    <path d="M4 20C4 8.95431 12.9543 0 24 0H604C615.046 0 624 8.95431 624 20V403C624 414.046 615.046 423 604 423H24C12.9543 423 4 414.046 4 403V20Z" fill="#C4C4C4"/>
  </g>
  <rect x="31" y="44" width="566" height="359" rx="3" fill="#EAEAEA"/>
  <path d="M4 20C4 8.9543 12.9543 0 24 0H604C615.046 0 624 8.95431 624 20V28H4V20Z" fill="#22C1C3"/>
  <circle cx="596.5" cy="13.5" r="7.5" fill="#C91D1D"/>
  <circle cx="565.5" cy="13.5" r="7.5" fill="#D1AF38"/>
  <circle cx="534.5" cy="13.5" r="7.5" fill="#C4C4C4"/>
  <g filter="url(#filter1_d)">
    <rect x="61" y="73" width="181" height="295" fill="#DCDCDC"/>
  </g>
  <circle cx="150.5" cy="166.5" r="47.5" stroke="#D2D2D2" stroke-width="20"/>
  <path d="M191.598 128.402C192.77 127.23 192.774 125.325 191.545 124.214C182.533 116.075 171.207 110.897 159.103 109.429C146.005 107.841 132.752 110.688 121.463 117.517C110.173 124.347 101.499 134.763 96.8252 147.102C92.5066 158.503 91.8347 170.938 94.8603 182.699C95.2731 184.304 96.9635 185.184 98.545 184.69L114.433 179.729C116.015 179.236 116.884 177.555 116.522 175.938C114.975 169.025 115.478 161.787 118.002 155.123C120.882 147.52 126.227 141.101 133.183 136.893C140.14 132.685 148.306 130.93 156.377 131.909C163.452 132.767 170.096 135.683 175.501 140.262C176.765 141.333 178.657 141.343 179.828 140.172L191.598 128.402Z" fill="#D1AF38"/>
  <rect x="158" y="267" width="19" height="87" rx="2" fill="#D2D2D2"/>
  <rect x="158" y="301" width="19" height="53" rx="2" fill="#B6B3B3"/>
  <rect x="195" y="238" width="19" height="116" rx="2" fill="#D2D2D2"/>
  <rect x="195" y="280" width="19" height="74" rx="2" fill="#B6B3B3"/>
  <rect x="84" y="267" width="19" height="87" rx="2" fill="#D2D2D2"/>
  <rect x="84" y="296" width="19" height="58" rx="2" fill="#B6B3B3"/>
  <rect x="121" y="248" width="19" height="106" rx="2" fill="#D2D2D2"/>
  <rect x="121" y="288" width="19" height="66" rx="2" fill="#B6B3B3"/>
  <g filter="url(#filter2_d)">
    <rect x="282" y="81" width="273" height="29" rx="3" fill="#DCDCDC"/>
  </g>
  <g filter="url(#filter3_d)">
    <rect x="282" y="139" width="273" height="29" rx="3" fill="#DCDCDC"/>
  </g>
  <g filter="url(#filter4_d)">
    <rect x="282" y="197" width="273" height="29" rx="3" fill="#DCDCDC"/>
  </g>
  <g filter="url(#filter5_d)">
    <rect x="282" y="255" width="273" height="29" rx="3" fill="#DCDCDC"/>
  </g>
  <g filter="url(#filter6_d)">
    <rect x="359" y="313" width="120" height="29" rx="3" fill="#D1AF38"/>
  </g>
  <path d="M309.487 215.955L305.422 212.259C305.023 211.896 304.407 211.915 304.031 212.302L301.638 214.763C301.062 214.653 299.904 214.292 298.712 213.103C297.52 211.91 297.159 210.749 297.052 210.177L299.511 207.783C299.899 207.407 299.917 206.792 299.554 206.392L295.859 202.328C295.496 201.927 294.879 201.889 294.468 202.241L292.298 204.102C292.125 204.276 292.022 204.506 292.008 204.751C291.993 205.001 291.707 210.923 296.299 215.517C300.305 219.522 305.323 219.815 306.705 219.815C306.907 219.815 307.031 219.809 307.064 219.807C307.309 219.793 307.539 219.69 307.712 219.516L309.572 217.345C309.926 216.934 309.887 216.318 309.487 215.955Z" fill="#B6B3B3"/>
  <path d="M308 145H292C290.896 145 290 145.896 290 147V159C290 160.104 290.896 161 292 161H308C309.104 161 310 160.104 310 159V147C310 145.896 309.104 145 308 145ZM308 149.7L300 155.034L292 149.7V147.297L300 152.63L308 147.297V149.7Z" fill="#B6B3B3"/>
  <path d="M304 260H296C292.691 260 290 262.691 290 266V279C290 279.553 290.447 280 291 280H304C307.309 280 310 277.309 310 274V266C310 262.691 307.309 260 304 260ZM302 273H295V271H302V273ZM305 269H295V267H305V269Z" fill="#B6B3B3"/>
  <path d="M296.75 91.75C296.75 93.8175 298.432 95.5 300.5 95.5C302.568 95.5 304.25 93.8175 304.25 91.75C304.25 89.6825 302.568 88 300.5 88C298.432 88 296.75 89.6825 296.75 91.75ZM307.167 103.833H308V103C308 99.7842 305.382 97.1667 302.167 97.1667H298.833C295.617 97.1667 293 99.7842 293 103V103.833H293.833H294.667H306.333H307.167Z" fill="#B6B3B3"/>
  <path d="M624.259 178.547C624.259 178.547 625.68 197.738 625.68 198.449C625.68 199.159 615.729 248.201 615.729 248.201C615.729 248.201 601.514 275.21 615.729 274.499C629.945 273.789 625.68 248.912 625.68 248.912L640.606 207.688L634.209 178.547L624.259 178.547Z" fill="#FFB8B8"/>
  <path d="M694.624 393.196L696.756 408.832L681.83 410.254L683.962 391.063L694.624 393.196Z" fill="#FFB8B8"/>
  <path d="M647.714 393.196L645.581 408.832L660.507 410.254L658.375 391.063L647.714 393.196Z" fill="#FFB8B8"/>
  <path d="M631.366 246.78L627.812 251.755C627.812 251.755 625.68 273.078 627.812 280.186C629.945 287.293 634.209 319.988 634.209 322.12C634.209 324.252 634.92 325.674 634.209 326.385C633.498 327.095 634.209 334.203 634.209 334.203V337.757L643.449 390.353C643.449 390.353 637.763 396.75 642.028 396.75C646.292 396.75 661.929 396.75 661.218 389.642L659.796 388.931C659.796 388.931 657.664 342.021 658.375 339.889C659.086 337.757 659.796 324.252 659.796 324.252L666.193 280.896L678.276 322.831L681.119 385.377C681.119 385.377 678.276 392.485 681.119 393.906C683.962 395.328 696.045 400.303 696.756 393.196C697.467 386.088 701.02 324.252 701.02 321.409C701.02 318.566 699.599 274.499 699.599 274.499C699.599 274.499 700.31 267.392 701.02 265.97C701.731 264.549 700.31 263.127 701.02 260.995C701.731 258.863 699.599 251.755 699.599 251.755L667.615 243.226L631.366 246.78Z" fill="#2F2E41"/>
  <path d="M656.243 405.989C656.243 405.989 659.796 402.436 654.821 402.436C651.627 402.501 648.481 403.227 645.581 404.568L642.027 417.361C642.027 417.361 627.457 429.089 643.804 427.667C660.152 426.246 662.639 425.891 663.35 424.469C663.849 423.471 662.947 413.021 662.365 406.878C662.339 406.582 662.234 406.299 662.061 406.058C661.887 405.817 661.652 405.627 661.38 405.509C661.107 405.39 660.808 405.347 660.514 405.385C660.219 405.422 659.94 405.538 659.706 405.721C659.244 406.15 658.65 406.41 658.021 406.459C657.392 406.507 656.766 406.342 656.243 405.989V405.989Z" fill="#2F2E41"/>
  <path d="M686.805 405.989C686.805 405.989 683.251 402.436 688.227 402.436C691.421 402.501 694.567 403.227 697.466 404.568L701.02 417.361C701.02 417.361 715.591 429.089 699.243 427.667C682.896 426.246 678.276 425.89 677.565 424.469C677.07 423.479 678.989 413.177 680.199 407.017C680.266 406.676 680.418 406.359 680.642 406.094C680.866 405.829 681.153 405.626 681.478 405.504C681.802 405.382 682.152 405.344 682.495 405.396C682.838 405.447 683.162 405.585 683.437 405.796C683.899 406.194 684.479 406.429 685.088 406.463C685.697 406.498 686.3 406.332 686.805 405.989V405.989Z" fill="#2F2E41"/>
  <path d="M634.209 117.422C634.209 117.422 637.052 131.637 637.052 133.77C637.052 135.902 649.135 142.299 649.135 142.299L662.639 125.241C662.639 125.241 654.11 113.158 654.11 110.315L634.209 117.422Z" fill="#FFB8B8"/>
  <path d="M644.871 135.902C644.871 135.902 638.676 134.253 636.798 131.524C636.798 131.524 617.151 150.828 617.151 154.382L632.788 182.101C632.788 182.101 632.788 192.052 634.209 192.762C635.631 193.473 634.209 192.762 634.209 195.605C634.209 198.449 629.945 216.928 631.366 219.771C632.788 222.614 634.209 220.482 632.788 224.746C631.366 229.011 627.812 251.755 627.812 251.755C627.812 251.755 640.606 247.491 659.086 254.598C677.565 261.706 699.599 251.755 699.599 251.755C699.599 251.755 693.913 238.962 695.334 234.697C696.756 230.433 691.78 222.614 691.78 222.614L688.227 157.225C688.227 157.225 693.202 128.084 689.648 126.662L682.541 123.819L659.779 121.022C659.779 121.022 654.11 135.191 644.871 135.902Z" fill="#3F3D56"/>
  <path d="M624.259 149.406L617.151 154.382C617.151 154.382 613.597 165.043 617.151 170.018C620.705 174.994 622.126 182.101 622.126 182.101L636.341 180.68L624.259 149.406Z" fill="#3F3D56"/>
  <path d="M640.606 122.398C650.812 122.398 659.086 114.124 659.086 103.918C659.086 93.7119 650.812 85.4383 640.606 85.4383C630.4 85.4383 622.126 93.7119 622.126 103.918C622.126 114.124 630.4 122.398 640.606 122.398Z" fill="#FFB8B8"/>
  <path d="M626.497 84.3881L623.291 83.1048C623.291 83.1048 629.994 75.7258 639.319 76.3674L636.696 73.4799C636.696 73.4799 643.107 70.9134 648.935 77.6507C651.999 81.1924 655.544 85.3554 657.754 90.045H661.187L659.754 93.1998L664.769 96.3546L659.622 95.7879C660.109 98.5115 659.942 101.312 659.135 103.958L659.273 106.452C659.273 106.452 653.307 97.2211 653.307 95.9378V99.1461C653.307 99.1461 650.101 96.2586 650.101 94.3337L648.353 96.5795L647.478 93.0504L636.696 96.5795L638.445 93.692L631.742 94.6545L634.365 91.1254C634.365 91.1254 626.788 95.2962 626.497 98.8253C626.205 102.354 622.417 106.846 622.417 106.846L620.669 103.638C620.669 103.638 618.046 89.2005 626.497 84.3881Z" fill="#2F2E41"/>
  <path d="M676.855 155.803C676.855 155.803 672.739 166.387 673.598 176.858C673.756 178.733 674.387 180.537 675.433 182.101L625.009 206.04C625.009 206.04 602.225 208.399 607.911 218.35C613.597 228.3 634.209 213.374 634.209 213.374C634.209 213.374 688.227 205.556 692.491 197.738C696.756 189.919 699.599 157.225 699.599 157.225L676.855 155.803Z" fill="#FFB8B8"/>
  <path d="M678.987 126.662H689.648C689.648 126.662 697.466 128.084 699.599 142.299C701.731 156.514 703.863 160.068 701.731 160.068C699.599 160.068 674.011 159.357 674.011 158.646C674.011 157.935 678.987 126.662 678.987 126.662Z" fill="#3F3D56"/>
  <defs>
    <filter id="filter0_d" x="0" y="0" width="628" height="431" filterUnits="userSpaceOnUse" color-interpolation-filters="sRGB">
      <feFlood flood-opacity="0" result="BackgroundImageFix"/>
      <feColorMatrix in="SourceAlpha" type="matrix" values="0 0 0 0 0 0 0 0 0 0 0 0 0 0 0 0 0 0 127 0"/>
      <feOffset dy="4"/>
      <feGaussianBlur stdDeviation="2"/>
      <feColorMatrix type="matrix" values="0 0 0 0 0 0 0 0 0 0 0 0 0 0 0 0 0 0 0.25 0"/>
      <feBlend mode="normal" in2="BackgroundImageFix" result="effect1_dropShadow"/>
      <feBlend mode="normal" in="SourceGraphic" in2="effect1_dropShadow" result="shape"/>
    </filter>
    <filter id="filter1_d" x="57" y="73" width="189" height="303" filterUnits="userSpaceOnUse" color-interpolation-filters="sRGB">
      <feFlood flood-opacity="0" result="BackgroundImageFix"/>
      <feColorMatrix in="SourceAlpha" type="matrix" values="0 0 0 0 0 0 0 0 0 0 0 0 0 0 0 0 0 0 127 0"/>
      <feOffset dy="4"/>
      <feGaussianBlur stdDeviation="2"/>
      <feColorMatrix type="matrix" values="0 0 0 0 0 0 0 0 0 0 0 0 0 0 0 0 0 0 0.25 0"/>
      <feBlend mode="normal" in2="BackgroundImageFix" result="effect1_dropShadow"/>
      <feBlend mode="normal" in="SourceGraphic" in2="effect1_dropShadow" result="shape"/>
    </filter>
    <filter id="filter2_d" x="278" y="81" width="281" height="37" filterUnits="userSpaceOnUse" color-interpolation-filters="sRGB">
      <feFlood flood-opacity="0" result="BackgroundImageFix"/>
      <feColorMatrix in="SourceAlpha" type="matrix" values="0 0 0 0 0 0 0 0 0 0 0 0 0 0 0 0 0 0 127 0"/>
      <feOffset dy="4"/>
      <feGaussianBlur stdDeviation="2"/>
      <feColorMatrix type="matrix" values="0 0 0 0 0 0 0 0 0 0 0 0 0 0 0 0 0 0 0.25 0"/>
      <feBlend mode="normal" in2="BackgroundImageFix" result="effect1_dropShadow"/>
      <feBlend mode="normal" in="SourceGraphic" in2="effect1_dropShadow" result="shape"/>
    </filter>
    <filter id="filter3_d" x="278" y="139" width="281" height="37" filterUnits="userSpaceOnUse" color-interpolation-filters="sRGB">
      <feFlood flood-opacity="0" result="BackgroundImageFix"/>
      <feColorMatrix in="SourceAlpha" type="matrix" values="0 0 0 0 0 0 0 0 0 0 0 0 0 0 0 0 0 0 127 0"/>
      <feOffset dy="4"/>
      <feGaussianBlur stdDeviation="2"/>
      <feColorMatrix type="matrix" values="0 0 0 0 0 0 0 0 0 0 0 0 0 0 0 0 0 0 0.25 0"/>
      <feBlend mode="normal" in2="BackgroundImageFix" result="effect1_dropShadow"/>
      <feBlend mode="normal" in="SourceGraphic" in2="effect1_dropShadow" result="shape"/>
    </filter>
    <filter id="filter4_d" x="278" y="197" width="281" height="37" filterUnits="userSpaceOnUse" color-interpolation-filters="sRGB">
      <feFlood flood-opacity="0" result="BackgroundImageFix"/>
      <feColorMatrix in="SourceAlpha" type="matrix" values="0 0 0 0 0 0 0 0 0 0 0 0 0 0 0 0 0 0 127 0"/>
      <feOffset dy="4"/>
      <feGaussianBlur stdDeviation="2"/>
      <feColorMatrix type="matrix" values="0 0 0 0 0 0 0 0 0 0 0 0 0 0 0 0 0 0 0.25 0"/>
      <feBlend mode="normal" in2="BackgroundImageFix" result="effect1_dropShadow"/>
      <feBlend mode="normal" in="SourceGraphic" in2="effect1_dropShadow" result="shape"/>
    </filter>
    <filter id="filter5_d" x="278" y="255" width="281" height="37" filterUnits="userSpaceOnUse" color-interpolation-filters="sRGB">
      <feFlood flood-opacity="0" result="BackgroundImageFix"/>
      <feColorMatrix in="SourceAlpha" type="matrix" values="0 0 0 0 0 0 0 0 0 0 0 0 0 0 0 0 0 0 127 0"/>
      <feOffset dy="4"/>
      <feGaussianBlur stdDeviation="2"/>
      <feColorMatrix type="matrix" values="0 0 0 0 0 0 0 0 0 0 0 0 0 0 0 0 0 0 0.25 0"/>
      <feBlend mode="normal" in2="BackgroundImageFix" result="effect1_dropShadow"/>
      <feBlend mode="normal" in="SourceGraphic" in2="effect1_dropShadow" result="shape"/>
    </filter>
    <filter id="filter6_d" x="355" y="313" width="128" height="37" filterUnits="userSpaceOnUse" color-interpolation-filters="sRGB">
      <feFlood flood-opacity="0" result="BackgroundImageFix"/>
      <feColorMatrix in="SourceAlpha" type="matrix" values="0 0 0 0 0 0 0 0 0 0 0 0 0 0 0 0 0 0 127 0"/>
      <feOffset dy="4"/>
      <feGaussianBlur stdDeviation="2"/>
      <feColorMatrix type="matrix" values="0 0 0 0 0 0 0 0 0 0 0 0 0 0 0 0 0 0 0.25 0"/>
      <feBlend mode="normal" in2="BackgroundImageFix" result="effect1_dropShadow"/>
      <feBlend mode="normal" in="SourceGraphic" in2="effect1_dropShadow" result="shape"/>
    </filter>
  </defs>
</svg>
