<svg width="1186" height="924" viewBox="0 0 1186 924" fill="none"
  xmlns="http://www.w3.org/2000/svg">
  <rect width="243.735" height="615.898" rx="15" transform="matrix(0.909262 -0.416224 -0.00340058 0.999994 530.179 209.501)" fill="#22C1C3" fill-opacity="0.06"/>
  <g filter="url(#filter0_d)">
    <rect width="208.401" height="167.722" rx="25" transform="matrix(0.909262 -0.416224 -0.00340059 0.999994 544.273 300.048)" fill="#E0E0E0"/>
  </g>
  <g clip-path="url(#clip0)">
    <rect x="0.137622" y="0.0886887" width="175.884" height="0.303848" transform="matrix(0.909262 -0.416224 -0.00340059 0.999994 573.085 431.327)" stroke="#C4C4C4" stroke-width="0.303848" stroke-dasharray="8 8"/>
    <rect x="0.137622" y="0.0886887" width="175.884" height="0.303848" transform="matrix(0.909262 -0.416224 -0.00340059 0.999994 573.163 408.235)" stroke="#C4C4C4" stroke-width="0.303848" stroke-dasharray="8 8"/>
    <rect x="0.13762" y="0.0886876" width="175.884" height="0.303844" transform="matrix(0.909262 -0.416224 -0.00340059 0.999994 573.242 385.142)" stroke="#C4C4C4" stroke-width="0.303844" stroke-dasharray="8 8"/>
    <rect x="0.137621" y="0.0886879" width="175.884" height="0.303845" transform="matrix(0.909262 -0.416224 -0.00340059 0.999994 573.32 362.05)" stroke="#C4C4C4" stroke-width="0.303845" stroke-dasharray="8 8"/>
    <rect x="0.137621" y="0.0886878" width="175.884" height="0.303845" transform="matrix(0.909262 -0.416224 -0.00340059 0.999994 573.399 338.958)" stroke="#C4C4C4" stroke-width="0.303845" stroke-dasharray="8 8"/>
  </g>
  <mask id="mask0" mask-type="alpha" maskUnits="userSpaceOnUse" x="572" y="225" width="162" height="230">
    <path d="M573.522 298.794L733.723 225.46L733.279 356.028C733.232 369.835 723.017 385.687 710.462 391.434L572.993 454.361L573.522 298.794Z" fill="white"/>
  </mask>
  <g mask="url(#mask0)">
    <path fill-rule="evenodd" clip-rule="evenodd" d="M573.193 395.603C573.193 395.603 579.147 409.68 587.482 405.864C595.818 402.048 604.47 362.29 616.621 356.728C628.772 351.165 631.795 362.523 642.555 357.598C653.315 352.672 659.478 282.876 675.361 275.605C691.245 268.334 695.307 289.745 709.58 283.211C723.853 276.678 733.49 294.012 733.49 294.012L733.218 373.822C733.218 373.822 731.923 381.61 726.084 384.282C720.245 386.955 572.993 454.361 572.993 454.361L573.193 395.603Z" fill="url(#paint0_linear)"/>
    <g filter="url(#filter1_d)">
      <path d="M572.808 395.431C572.808 395.431 579.147 409.68 587.482 405.864C595.818 402.048 604.47 362.29 616.621 356.728C628.772 351.165 631.795 362.523 642.555 357.598C653.315 352.672 659.478 282.876 675.361 275.605C691.245 268.334 695.307 289.745 709.58 283.211C723.853 276.678 733.49 294.012 733.49 294.012" stroke="#22C1C3" stroke-width="2" stroke-linecap="round" stroke-linejoin="round"/>
    </g>
    <g filter="url(#filter2_d)">
      <ellipse rx="3.28708" ry="3.03845" transform="matrix(0.909262 -0.416224 -0.00340059 0.999994 617.492 356.329)" fill="white"/>
      <path d="M619.572 355.377C619.568 356.43 618.703 357.81 617.486 358.367C616.268 358.924 615.409 358.334 615.413 357.281C615.416 356.228 616.282 354.848 617.499 354.29C618.717 353.733 619.576 354.324 619.572 355.377Z" stroke="#22C1C3" stroke-width="2"/>
    </g>
  </g>
  <path d="M528.971 757.274L749.279 656.426L749.087 712.898C749.068 718.421 744.982 724.762 739.96 727.061L537.837 819.584C532.816 821.883 528.76 819.269 528.779 813.747L528.971 757.274Z" fill="#E0E0E0"/>
  <path fill-rule="evenodd" clip-rule="evenodd" d="M693.482 706.315C692.204 708.433 692.196 710.904 692.179 715.846L692.145 725.865C692.141 726.891 692.14 727.404 692.251 727.627C692.49 728.105 693.055 728.129 693.571 727.682C693.812 727.474 694.114 726.974 694.717 725.973L694.717 725.973L694.717 725.973C695.207 725.162 695.452 724.756 695.721 724.396C696.285 723.641 696.94 723.015 697.631 722.571C697.96 722.359 698.305 722.201 698.994 721.886L703.554 719.798C707.125 718.163 708.911 717.346 710.117 715.606C710.338 715.287 710.54 714.952 710.722 714.604C711.713 712.702 711.72 710.548 711.735 706.24C711.75 701.931 711.757 699.777 710.776 698.779C710.596 698.596 710.395 698.445 710.176 698.328C708.978 697.688 707.192 698.506 703.621 700.14L700.905 701.384C696.808 703.259 694.76 704.197 693.482 706.315ZM697.063 714.919C697.963 714.507 698.695 713.293 698.699 712.207C698.703 711.121 697.976 710.575 697.076 710.987C696.176 711.399 695.444 712.613 695.44 713.699C695.436 714.784 696.163 715.331 697.063 714.919ZM703.588 709.969C703.584 711.055 702.851 712.269 701.951 712.681C701.052 713.093 700.325 712.547 700.329 711.461C700.332 710.375 701.065 709.161 701.965 708.749C702.865 708.337 703.591 708.884 703.588 709.969ZM706.84 710.443C707.74 710.031 708.472 708.817 708.476 707.731C708.48 706.646 707.753 706.1 706.853 706.512C705.953 706.924 705.221 708.138 705.217 709.223C705.213 710.309 705.94 710.855 706.84 710.443Z" fill="#EDEDED"/>
  <path d="M585.005 776.862C565.975 772.651 579.824 750.245 585.067 758.666C590.383 745.412 604.124 755.188 585.005 776.862Z" fill="#EDEDED"/>
  <ellipse rx="20.5516" ry="26.1207" transform="matrix(0.909262 -0.416224 -0.00340059 0.999994 638.683 740.453)" fill="#22C1C3"/>
  <path d="M638.082 734.14L630.913 747.349L630.877 758.079C630.876 758.357 630.94 758.593 631.055 758.737C631.171 758.88 631.328 758.918 631.492 758.843L635.829 756.839C635.993 756.763 636.15 756.58 636.266 756.331C636.382 756.082 636.448 755.786 636.449 755.509L636.47 749.243C636.471 748.965 636.537 748.669 636.654 748.419C636.771 748.17 636.929 747.987 637.093 747.912L639.57 746.778C639.734 746.703 639.891 746.741 640.006 746.885C640.122 747.028 640.186 747.264 640.185 747.542L640.164 753.804C640.163 753.942 640.179 754.071 640.209 754.185C640.24 754.298 640.285 754.393 640.342 754.464C640.399 754.535 640.467 754.582 640.542 754.6C640.618 754.618 640.698 754.609 640.78 754.571L645.115 752.607C645.279 752.532 645.437 752.35 645.554 752.1C645.67 751.85 645.737 751.554 645.738 751.276L645.774 740.539L638.674 733.869C638.591 733.793 638.486 733.779 638.379 733.828C638.271 733.878 638.166 733.988 638.082 734.14V734.14ZM649.33 735.739L646.11 732.708L646.141 723.639C646.141 723.431 646.093 723.254 646.006 723.146C645.92 723.039 645.802 723.01 645.679 723.066L643.512 724.058C643.389 724.115 643.27 724.252 643.183 724.439C643.095 724.626 643.045 724.848 643.045 725.057L643.028 729.811L639.58 726.574C639.249 726.263 638.833 726.201 638.402 726.398C637.971 726.595 637.553 727.039 637.219 727.655L627.377 745.788C627.329 745.875 627.29 745.974 627.261 746.078C627.233 746.182 627.215 746.29 627.208 746.396C627.202 746.501 627.208 746.602 627.226 746.692C627.243 746.783 627.272 746.861 627.311 746.923L628.291 748.501C628.329 748.563 628.377 748.607 628.431 748.631C628.484 748.655 628.543 748.658 628.604 748.64C628.665 748.622 628.726 748.583 628.785 748.526C628.843 748.469 628.898 748.395 628.945 748.308L638.091 731.456C638.175 731.303 638.28 731.193 638.388 731.144C638.496 731.095 638.6 731.109 638.683 731.185L647.744 739.702C647.79 739.747 647.844 739.771 647.903 739.775C647.961 739.779 648.022 739.761 648.083 739.724C648.144 739.686 648.203 739.629 648.257 739.556C648.311 739.483 648.359 739.396 648.398 739.298L649.392 736.817C649.431 736.719 649.46 736.614 649.478 736.506C649.497 736.399 649.503 736.293 649.497 736.192C649.491 736.092 649.474 736 649.445 735.923C649.416 735.845 649.377 735.782 649.33 735.739V735.739Z" fill="#EDEDED"/>
  <g filter="url(#filter3_d)">
    <rect width="204.074" height="197.051" rx="25" transform="matrix(0.909262 -0.416224 -0.00340059 0.999994 547.512 502.629)" fill="#E0E0E0"/>
  </g>
  <rect width="6.43767" height="118.558" rx="3.21884" transform="matrix(0.909262 -0.416224 -0.00340059 0.999994 562.662 516.103)" fill="#EDEDED"/>
  <rect width="6.43767" height="118.558" rx="3.21884" transform="matrix(0.909262 -0.416224 -0.00340059 0.999994 587.247 504.849)" fill="#EDEDED"/>
  <rect width="6.43767" height="118.558" rx="3.21884" transform="matrix(0.909262 -0.416224 -0.00340059 0.999994 611.832 493.595)" fill="#EDEDED"/>
  <rect width="6.43766" height="118.558" rx="3.21883" transform="matrix(0.909262 -0.416224 -0.00340059 0.999994 636.417 482.341)" fill="#EDEDED"/>
  <rect width="6.43767" height="118.558" rx="3.21883" transform="matrix(0.909262 -0.416224 -0.00340059 0.999994 661.001 471.087)" fill="#EDEDED"/>
  <rect width="6.43768" height="118.558" rx="3.21884" transform="matrix(0.909262 -0.416224 -0.00340059 0.999994 685.586 459.833)" fill="#EDEDED"/>
  <rect width="6.43767" height="118.558" rx="3.21883" transform="matrix(0.909262 -0.416224 -0.00340059 0.999994 710.171 448.579)" fill="#EDEDED"/>
  <rect width="6.43767" height="61.3229" rx="3.21884" transform="matrix(0.909262 -0.416224 -0.00340059 0.999994 562.467 573.337)" fill="#22C1C3"/>
  <rect width="6.43767" height="24.5291" rx="3.21884" transform="matrix(0.909262 -0.416224 -0.00340059 0.999994 562.562 545.538)" fill="#D1AF38"/>
  <rect width="6.43767" height="24.5291" rx="3.21884" transform="matrix(0.909262 -0.416224 -0.00340059 0.999994 587.047 563.719)" fill="#D1AF38"/>
  <rect width="6.43767" height="24.5291" rx="3.21884" transform="matrix(0.909262 -0.416224 -0.00340059 0.999994 611.668 541.835)" fill="#D1AF38"/>
  <rect width="6.43766" height="24.5291" rx="3.21883" transform="matrix(0.909262 -0.416224 -0.00340059 0.999994 636.383 492.153)" fill="#D1AF38"/>
  <rect width="6.43767" height="24.5291" rx="3.21883" transform="matrix(0.909262 -0.416224 -0.00340059 0.999994 660.873 508.698)" fill="#D1AF38"/>
  <rect width="6.43767" height="31.8879" rx="3.21884" transform="matrix(0.909262 -0.416224 -0.00340059 0.999994 586.952 591.518)" fill="#22C1C3"/>
  <rect width="6.43767" height="42.5172" rx="3.21884" transform="matrix(0.909262 -0.416224 -0.00340059 0.999994 611.573 569.635)" fill="#22C1C3"/>
  <rect width="6.43766" height="80.9462" rx="3.21883" transform="matrix(0.909262 -0.416224 -0.00340059 0.999994 636.289 519.952)" fill="#22C1C3"/>
  <rect width="6.43767" height="53.1465" rx="3.21883" transform="matrix(0.909262 -0.416224 -0.00340059 0.999994 660.779 536.498)" fill="#22C1C3"/>
  <rect width="6.43768" height="24.5291" rx="3.21884" transform="matrix(0.909262 -0.416224 -0.00340059 0.999994 685.369 523.609)" fill="#D1AF38"/>
  <rect width="6.43768" height="26.9821" rx="3.21884" transform="matrix(0.909262 -0.416224 -0.00340059 0.999994 685.275 551.408)" fill="#22C1C3"/>
  <rect width="6.43767" height="24.5291" rx="3.21883" transform="matrix(0.909262 -0.416224 -0.00340059 0.999994 710.043 486.19)" fill="#D1AF38"/>
  <rect width="6.43767" height="53.1465" rx="3.21883" transform="matrix(0.909262 -0.416224 -0.00340059 0.999994 709.949 513.99)" fill="#22C1C3"/>
  <path d="M586.058 238.959C586.049 241.408 585.648 243.736 584.855 245.942C584.061 248.148 582.927 250.089 581.453 251.765C579.988 253.436 578.309 254.706 576.413 255.574C574.538 256.432 572.866 256.702 571.399 256.384C569.931 256.067 568.796 255.176 567.994 253.711C567.193 252.235 566.791 250.303 566.789 247.916L566.793 246.685C566.801 244.236 567.207 241.9 568.011 239.678C568.826 237.439 569.965 235.49 571.429 233.83C572.903 232.154 574.583 230.885 576.469 230.022C578.354 229.159 580.025 228.894 581.483 229.228C582.95 229.546 584.08 230.456 584.871 231.96C585.673 233.447 586.07 235.41 586.061 237.848L586.058 238.959ZM581.337 239.993C581.346 237.384 580.928 235.596 580.083 234.629C579.239 233.662 578.029 233.539 576.454 234.26C574.89 234.976 573.681 236.201 572.827 237.934C571.973 239.656 571.536 241.812 571.517 244.403L571.513 245.617C571.504 248.157 571.922 249.934 572.767 250.946C573.612 251.959 574.832 252.1 576.427 251.37C577.991 250.654 579.195 249.431 580.039 247.703C580.883 245.963 581.314 243.797 581.333 241.206L581.337 239.993ZM595.423 240.507L598.589 226.619L603.282 224.471L597.547 245.558L593.258 247.521L587.649 231.626L592.342 229.478L595.423 240.507ZM612.728 238.95C610.262 240.079 608.255 240.167 606.707 239.215C605.169 238.258 604.405 236.395 604.414 233.627L604.416 233.148C604.422 231.291 604.754 229.484 605.412 227.727C606.069 225.959 606.995 224.409 608.189 223.077C609.394 221.73 610.763 220.705 612.296 220.003C614.595 218.95 616.401 218.92 617.711 219.913C619.031 220.901 619.687 222.859 619.677 225.787L619.67 227.804L608.963 232.705C609.104 233.846 609.536 234.615 610.259 235.013C610.992 235.405 611.918 235.345 613.037 234.833C614.767 234.041 616.121 232.733 617.099 230.909L619.297 232.616C618.62 233.972 617.705 235.21 616.553 236.329C615.401 237.436 614.126 238.31 612.728 238.95ZM612.267 224.009C611.376 224.417 610.649 225.079 610.088 225.996C609.536 226.908 609.181 228.015 609.021 229.317L615.268 226.457L615.269 226.064C615.252 224.98 614.986 224.26 614.47 223.905C613.954 223.538 613.22 223.573 612.267 224.009ZM631.703 216.085C631.092 216.273 630.553 216.474 630.087 216.688C628.388 217.465 627.272 218.608 626.74 220.114L626.699 232.214L622.208 234.269L622.271 215.778L626.513 213.836L626.63 215.984C627.537 213.874 628.788 212.454 630.383 211.723C630.881 211.496 631.346 211.356 631.781 211.305L631.703 216.085ZM640.425 219.907L643.59 206.019L648.283 203.871L642.549 224.958L638.26 226.921L632.651 211.027L637.344 208.878L640.425 219.907ZM654.949 219.282L650.442 221.345L650.505 202.853L655.012 200.791L654.949 219.282ZM650.257 198.189C650.26 197.449 650.485 196.737 650.932 196.055C651.389 195.368 652.006 194.846 652.783 194.491C653.55 194.14 654.16 194.099 654.615 194.369C655.069 194.639 655.295 195.144 655.292 195.885C655.29 196.637 655.054 197.358 654.587 198.05C654.129 198.738 653.522 199.254 652.766 199.6C652.01 199.947 651.399 199.987 650.935 199.722C650.481 199.452 650.255 198.941 650.257 198.189ZM666.4 214.381C663.934 215.51 661.928 215.598 660.379 214.646C658.841 213.689 658.077 211.826 658.087 209.058L658.088 208.579C658.094 206.722 658.426 204.915 659.084 203.158C659.742 201.39 660.667 199.84 661.862 198.508C663.066 197.161 664.435 196.136 665.968 195.434C668.268 194.381 670.073 194.351 671.383 195.344C672.704 196.332 673.359 198.29 673.349 201.218L673.342 203.235L662.636 208.136C662.776 209.277 663.208 210.046 663.931 210.444C664.664 210.836 665.59 210.776 666.709 210.264C668.439 209.472 669.793 208.164 670.771 206.34L672.969 208.047C672.292 209.403 671.377 210.641 670.226 211.76C669.074 212.867 667.798 213.741 666.4 214.381ZM665.939 199.44C665.048 199.848 664.322 200.51 663.76 201.427C663.209 202.339 662.853 203.446 662.694 204.748L668.94 201.888L668.942 201.495C668.925 200.411 668.658 199.691 668.142 199.336C667.626 198.969 666.892 199.004 665.939 199.44ZM690.525 196.29L692.772 183.506L697.107 181.521L692.756 201.975L688.995 203.697L685.849 193.517L682.624 206.613L678.879 208.327L674.653 191.8L678.989 189.815L681.14 200.57L684.256 187.404L687.504 185.917L690.525 196.29Z" fill="black"/>
  <rect width="243.735" height="615.898" rx="15" transform="matrix(0.906225 -0.422795 0.00383834 0.999993 774.11 208.94)" fill="#D1AF38" fill-opacity="0.16"/>
  <g clip-path="url(#clip1)">
    <rect width="2.1749" height="13.8249" rx="1.08745" transform="matrix(0.906225 -0.422795 0.00383834 0.999993 807.798 351.942)" fill="#FFC542"/>
    <rect width="2.1749" height="6.91245" rx="1.08745" transform="matrix(0.906225 -0.422795 0.00383834 0.999993 802.884 357.697)" fill="#FFC542"/>
    <rect width="2.1749" height="13.1336" rx="1.08745" transform="matrix(0.906225 -0.422795 0.00383834 0.999993 797.943 356.54)" fill="#FFC542"/>
    <rect width="2.1749" height="23.5023" rx="1.08745" transform="matrix(0.906225 -0.422795 0.00383834 0.999993 792.997 354)" fill="#FFC542"/>
    <rect width="2.1749" height="31.106" rx="1.08745" transform="matrix(0.906225 -0.422795 0.00383834 0.999993 812.694 341.349)" fill="#FFC542"/>
    <rect width="2.1749" height="10.3687" rx="1.08745" transform="matrix(0.906225 -0.422795 0.00383834 0.999993 817.661 349.418)" fill="#FFC542"/>
    <rect width="2.1749" height="2.76498" rx="1.08745" transform="matrix(0.906225 -0.422795 0.00383834 0.999993 822.601 350.576)" fill="#FFC542"/>
    <rect width="2.1749" height="5.52995" rx="1.08745" transform="matrix(0.906225 -0.422795 0.00383834 0.999993 827.523 346.894)" fill="#FFC542"/>
    <rect width="2.1749" height="12.4424" rx="1.08745" transform="matrix(0.906225 -0.422795 0.00383834 0.999993 832.438 341.139)" fill="#FFC542"/>
    <rect width="2.1749" height="27.6497" rx="1.08745" transform="matrix(0.906225 -0.422795 0.00383834 0.999993 837.336 331.237)" fill="#FFC542"/>
    <rect width="2.1749" height="34.5622" rx="1.08745" transform="matrix(0.906225 -0.422795 0.00383834 0.999993 842.25 325.482)" fill="#FFC542"/>
    <rect width="2.1749" height="27.6497" rx="1.08745" transform="matrix(0.906225 -0.422795 0.00383834 0.999993 847.19 326.639)" fill="#FFC542"/>
    <rect width="2.1749" height="62.2119" rx="1.08745" transform="matrix(0.906225 -0.422795 0.00383834 0.999993 852.051 307.059)" fill="#6C63FF"/>
    <rect width="2.1749" height="41.4746" rx="1.08745" transform="matrix(0.906225 -0.422795 0.00383834 0.999993 857.019 315.129)" fill="#6C63FF"/>
    <rect width="2.1749" height="25.576" rx="1.08745" transform="matrix(0.906225 -0.422795 0.00383834 0.999993 861.978 321.125)" fill="#6C63FF"/>
    <rect width="2.17489" height="13.8249" rx="1.08744" transform="matrix(0.906225 -0.422795 0.00383834 0.999993 866.926 324.356)" fill="#6C63FF"/>
    <rect width="2.1749" height="27.6497" rx="1.08745" transform="matrix(0.906225 -0.422795 0.00383834 0.999993 871.827 315.145)" fill="#6C63FF"/>
    <rect width="2.1749" height="27.6497" rx="1.08745" transform="matrix(0.906225 -0.422795 0.00383834 0.999993 876.755 312.846)" fill="#6C63FF"/>
    <rect width="2.17491" height="22.1198" rx="1.08746" transform="matrix(0.906225 -0.422795 0.00383834 0.999993 881.693 313.312)" fill="#6C63FF"/>
    <rect width="2.1749" height="56.682" rx="1.08745" transform="matrix(0.906225 -0.422795 0.00383834 0.999993 896.408 289.135)" fill="#6C63FF"/>
    <rect width="2.1749" height="48.3871" rx="1.08745" transform="matrix(0.906225 -0.422795 0.00383834 0.999993 886.57 297.88)" fill="#6C63FF"/>
    <path fill-rule="evenodd" clip-rule="evenodd" d="M891.435 279.387C891.432 278.787 891.872 278.094 892.416 277.84V277.84C892.96 277.586 893.403 277.867 893.406 278.468L893.716 359.242C893.718 359.842 893.279 360.535 892.734 360.789V360.789C892.19 361.043 891.747 360.762 891.745 360.161L891.435 279.387Z" fill="#6C63FF"/>
    <rect width="2.1749" height="34.5622" rx="1.08745" transform="matrix(0.906225 -0.422795 0.00383834 0.999993 901.378 297.896)" fill="#6C63FF"/>
    <rect width="2.1749" height="21.4286" rx="1.08745" transform="matrix(0.906225 -0.422795 0.00383834 0.999993 906.332 302.509)" fill="#FFC542"/>
    <rect width="2.17488" height="13.8249" rx="1.08744" transform="matrix(0.906225 -0.422795 0.00383834 0.999993 911.273 303.667)" fill="#FFC542"/>
    <rect width="2.17491" height="31.7972" rx="1.08746" transform="matrix(0.906225 -0.422795 0.00383834 0.999993 916.166 292.382)" fill="#FFC542"/>
    <rect width="2.17491" height="35.9447" rx="1.08746" transform="matrix(0.906225 -0.422795 0.00383834 0.999993 921.085 288.009)" fill="#2A3C44"/>
    <rect width="2.17488" height="16.5899" rx="1.08744" transform="matrix(0.906225 -0.422795 0.00383834 0.999993 926.05 295.388)" fill="#2A3C44"/>
    <rect width="2.17488" height="6.56683" rx="1.08744" transform="matrix(0.906225 -0.422795 0.00383834 0.999993 930.996 297.927)" fill="#2A3C44"/>
    <rect width="2.17491" height="12.4424" rx="1.08746" transform="matrix(0.906225 -0.422795 0.00383834 0.999993 935.912 292.864)" fill="#2A3C44"/>
    <rect width="2.17488" height="7.6037" rx="1.08744" transform="matrix(0.906225 -0.422795 0.00383834 0.999993 940.85 293.33)" fill="#2A3C44"/>
    <rect width="2.17488" height="27.6497" rx="1.08744" transform="matrix(0.906225 -0.422795 0.00383834 0.999993 945.738 280.662)" fill="#2A3C44"/>
    <rect width="2.1749" height="33.1797" rx="1.08745" transform="matrix(0.906225 -0.422795 0.00383834 0.999993 950.655 275.598)" fill="#2A3C44"/>
    <rect width="2.17488" height="17.9723" rx="1.08744" transform="matrix(0.906225 -0.422795 0.00383834 0.999993 955.611 280.903)" fill="#2A3C44"/>
    <rect width="2.1749" height="6.91245" rx="1.08745" transform="matrix(0.906225 -0.422795 0.00383834 0.999993 960.56 284.134)" fill="#2A3C44"/>
    <rect width="2.17491" height="2.76498" rx="1.08746" transform="matrix(0.906225 -0.422795 0.00383834 0.999993 965.495 283.909)" fill="#2A3C44"/>
    <rect width="2.17488" height="11.7511" rx="1.08744" transform="matrix(0.906225 -0.422795 0.00383834 0.999993 970.407 277.463)" fill="#2A3C44"/>
    <rect width="2.17488" height="37.3272" rx="1.08744" transform="matrix(0.906225 -0.422795 0.00383834 0.999993 975.284 262.031)" fill="#2A3C44"/>
    <g clip-path="url(#clip2)">
      <rect opacity="0.3" width="56.5474" height="166.59" rx="25" transform="matrix(0.906225 -0.422795 0.00383834 0.999993 851.829 248.995)" fill="url(#paint1_linear)"/>
      <g filter="url(#filter4_di)">
        <rect width="51.1101" height="30.4147" rx="15.2074" transform="matrix(0.906225 -0.422795 0.00383834 0.999993 854.802 380.564)" fill="#6C63FF"/>
      </g>
      <path fill-rule="evenodd" clip-rule="evenodd" d="M881.562 379.987C881.754 379.627 881.752 379.19 881.559 379.009C881.365 378.829 881.053 378.975 880.862 379.334L878.263 384.22L875.635 381.773C875.442 381.593 875.13 381.738 874.939 382.098C874.747 382.458 874.749 382.895 874.942 383.075L877.57 385.522L874.971 390.407C874.779 390.767 874.781 391.205 874.974 391.385C875.168 391.565 875.48 391.419 875.671 391.06L878.27 386.175L880.897 388.621C881.091 388.801 881.403 388.656 881.594 388.296C881.786 387.936 881.784 387.499 881.59 387.319L878.963 384.872L881.562 379.987Z" fill="white"/>
      <g filter="url(#filter5_di)">
        <rect width="51.1101" height="30.4147" rx="15.2074" transform="matrix(0.906225 -0.422795 0.00383834 0.999993 854.306 251.302)" fill="#FFC542"/>
      </g>
      <path fill-rule="evenodd" clip-rule="evenodd" d="M874.854 260.727L878.976 258.804C879.183 258.707 879.352 258.864 879.353 259.154C879.354 259.444 879.187 259.757 878.98 259.854L874.483 261.952C874.276 262.049 874.106 261.892 874.105 261.603L874.074 253.537L873.449 253.828C873.242 253.925 873.073 253.768 873.071 253.478C873.07 253.189 873.237 252.875 873.445 252.778L874.07 252.486L874.067 251.611C874.066 251.321 874.233 251.007 874.44 250.91C874.648 250.814 874.817 250.971 874.818 251.261L874.854 260.727ZM880.971 257.873L881.597 257.581C881.804 257.485 881.973 257.641 881.974 257.932C881.975 258.221 881.808 258.535 881.601 258.631L880.975 258.923L880.979 259.799C880.98 260.089 880.812 260.402 880.605 260.499C880.398 260.596 880.229 260.439 880.228 260.149L880.191 250.683L876.132 252.577C875.925 252.673 875.756 252.516 875.755 252.226C875.754 251.937 875.921 251.623 876.128 251.526L880.563 249.457C880.77 249.36 880.939 249.517 880.94 249.807L880.971 257.873Z" fill="#FEFEFE"/>
    </g>
  </g>
  <g filter="url(#filter6_d)">
    <path fill-rule="evenodd" clip-rule="evenodd" d="M803.608 686.203C786.329 637.071 808.744 556.003 853.65 505.132C898.556 454.261 948.974 452.823 966.253 501.955C975.26 527.566 973.745 563.036 962.234 599.687C955.271 621.855 938.777 639.037 925.375 638.079C912.1 637.131 906.816 618.724 913.49 596.777L913.847 595.623C918.006 582.113 918.513 569.219 915.197 559.792C908.779 541.542 890.028 542.077 873.305 561.021C856.769 579.754 848.406 609.494 854.474 627.812L854.822 628.832C859.9 644.159 853.055 668.919 839.384 684.747L838.963 685.229C824.871 701.192 809.038 701.644 803.608 686.203Z" fill="#E0E0E0"/>
  </g>
  <g filter="url(#filter7_d)">
    <ellipse rx="17.9066" ry="22.7589" transform="matrix(0.906225 -0.422795 0.00383834 0.999993 885.517 593.257)" fill="#2A3C44"/>
  </g>
  <path fill-rule="evenodd" clip-rule="evenodd" d="M882.056 590.035C881.846 590.43 881.847 590.91 882.06 591.108L884.752 593.614L882.089 598.618C881.879 599.012 881.88 599.493 882.093 599.691C882.305 599.888 882.648 599.728 882.858 599.334L885.521 594.33L888.212 596.835C888.425 597.033 888.767 596.873 888.977 596.478C889.188 596.084 889.186 595.603 888.973 595.406L886.282 592.9L888.945 587.896C889.155 587.501 889.153 587.02 888.94 586.823C888.728 586.625 888.386 586.785 888.175 587.18L885.512 592.184L882.821 589.678C882.608 589.48 882.266 589.64 882.056 590.035Z" fill="#899A96"/>
  <ellipse rx="17.9066" ry="22.7589" transform="matrix(0.906225 -0.422795 0.00383834 0.999993 939.201 603.17)" fill="#0062FF"/>
  <path fill-rule="evenodd" clip-rule="evenodd" d="M939.129 596.363C937.442 597.15 936.082 599.724 936.091 602.112L936.099 603.966C936.101 604.634 935.951 605.356 935.669 606.022L935.027 607.545C934.782 608.128 934.856 608.734 935.236 608.788C935.919 608.887 937.176 608.826 939.174 607.894C941.171 606.962 942.424 605.852 943.104 605.117C943.482 604.709 943.552 604.036 943.303 603.684L942.651 602.765C942.366 602.362 942.21 601.784 942.208 601.115L942.201 599.262C942.191 596.874 940.816 595.576 939.129 596.363ZM939.183 610.417C938.549 610.712 938.021 610.301 937.921 609.487C938.302 609.356 938.721 609.188 939.178 608.975C939.635 608.762 940.053 608.539 940.434 608.314C940.341 609.218 939.818 610.121 939.183 610.417Z" fill="white"/>
  <ellipse rx="17.9066" ry="22.7589" transform="matrix(0.906225 -0.422795 0.00383834 0.999993 935.123 529.074)" fill="#3DD598"/>
  <path fill-rule="evenodd" clip-rule="evenodd" d="M931.375 525.604C930.779 526.742 930.785 528.125 930.795 530.89L930.817 536.497C930.819 537.071 930.82 537.358 930.873 537.487C930.988 537.764 931.255 537.798 931.497 537.567C931.61 537.459 931.75 537.19 932.031 536.652L932.031 536.652L932.031 536.652C932.259 536.216 932.373 535.998 932.499 535.807C932.763 535.405 933.07 535.078 933.394 534.855C933.548 534.749 933.71 534.673 934.035 534.522L936.179 533.521C937.858 532.738 938.698 532.346 939.261 531.416C939.364 531.246 939.458 531.066 939.542 530.878C940.003 529.85 939.999 528.645 939.989 526.234C939.98 523.823 939.975 522.617 939.508 522.022C939.423 521.914 939.328 521.822 939.224 521.748C938.656 521.346 937.816 521.738 936.137 522.521L934.86 523.117C932.933 524.016 931.97 524.465 931.375 525.604ZM933.097 530.551C933.52 530.354 933.861 529.701 933.859 529.094C933.857 528.486 933.512 528.154 933.088 528.351C932.665 528.549 932.324 529.201 932.326 529.809C932.329 530.416 932.674 530.749 933.097 530.551ZM936.158 528.021C936.16 528.629 935.819 529.281 935.396 529.479C934.973 529.676 934.628 529.344 934.625 528.736C934.623 528.129 934.964 527.476 935.387 527.279C935.811 527.081 936.156 527.414 936.158 528.021ZM937.695 528.406C938.118 528.209 938.459 527.556 938.457 526.949C938.454 526.341 938.109 526.009 937.686 526.206C937.263 526.404 936.922 527.056 936.924 527.664C936.926 528.271 937.271 528.604 937.695 528.406Z" fill="white"/>
  <ellipse rx="17.9066" ry="22.7589" transform="matrix(0.906225 -0.422795 0.00383834 0.999993 885.205 512.084)" fill="#FFC542"/>
  <path d="M884.735 505.87C884.902 505.25 885.455 504.992 885.626 505.454L886.661 508.245C886.733 508.437 886.886 508.52 887.063 508.461L889.624 507.605C890.047 507.463 890.221 508.112 889.904 508.651L887.985 511.908C887.853 512.132 887.796 512.409 887.835 512.63L888.407 515.847C888.502 516.379 888.056 517.038 887.689 516.909L885.468 516.131C885.315 516.077 885.126 516.166 884.974 516.361L882.767 519.206C882.402 519.676 881.953 519.434 882.043 518.816L882.589 515.078C882.626 514.821 882.567 514.599 882.434 514.498L880.497 513.039C880.177 512.798 880.345 511.99 880.768 511.736L883.326 510.204C883.502 510.099 883.655 509.873 883.724 509.616L884.735 505.87Z" fill="white"/>
  <ellipse rx="17.9066" ry="22.7589" transform="matrix(0.906225 -0.422795 0.00383834 0.999993 835.595 575.508)" fill="#FF974A"/>
  <path d="M840.482 577.99L840.467 574.25C840.463 573.027 840.46 572.415 840.279 571.958C840.098 571.501 839.758 571.253 839.08 570.755L838.567 570.379C837.268 569.427 836.619 568.951 835.842 569.313C835.066 569.675 834.422 570.754 833.136 572.912L832.628 573.765C831.956 574.893 831.619 575.457 831.442 576.081C831.265 576.705 831.267 577.317 831.272 578.54L831.286 582.28C831.289 582.924 831.29 583.247 831.369 583.465C831.474 583.755 831.674 583.932 831.925 583.955C832.113 583.973 832.351 583.862 832.827 583.64L832.997 583.56C833.314 583.412 833.472 583.339 833.602 583.231C833.954 582.938 834.228 582.437 834.321 581.916C834.355 581.724 834.354 581.509 834.352 581.08L834.346 579.467C834.342 578.321 835.024 577.072 835.871 576.677C836.717 576.282 837.407 576.891 837.411 578.037L837.418 579.65C837.419 580.079 837.42 580.294 837.455 580.453C837.552 580.886 837.829 581.131 838.182 581.094C838.312 581.081 838.47 581.007 838.787 580.859L838.957 580.78C839.433 580.557 839.671 580.446 839.859 580.254C840.108 579.996 840.306 579.634 840.409 579.247C840.485 578.956 840.484 578.634 840.482 577.99Z" fill="white"/>
  <ellipse rx="17.9066" ry="22.7589" transform="matrix(0.906225 -0.422795 0.00383834 0.999993 832.1 653.137)" fill="#6C63FF"/>
  <path d="M832.126 659.965C822.599 656.727 829.432 643.989 832.085 649.183C834.689 641.536 841.595 647.865 832.126 659.965Z" fill="white"/>
  <path d="M776.871 757.624L996.443 655.183L996.66 711.656C996.681 717.179 992.641 723.549 987.636 725.884L786.188 819.868C781.183 822.203 777.109 819.619 777.088 814.096L776.871 757.624Z" fill="#E0E0E0"/>
  <path fill-rule="evenodd" clip-rule="evenodd" d="M941.009 705.475C939.746 707.602 939.756 710.073 939.775 715.015L939.813 725.034C939.817 726.06 939.819 726.573 939.932 726.795C940.175 727.272 940.739 727.291 941.253 726.841C941.492 726.631 941.79 726.129 942.386 725.124L942.386 725.124L942.386 725.124C942.87 724.309 943.112 723.902 943.379 723.539C943.938 722.78 944.588 722.149 945.275 721.7C945.603 721.486 945.946 721.326 946.633 721.005L951.178 718.885C954.738 717.224 956.517 716.394 957.711 714.645C957.929 714.325 958.129 713.988 958.308 713.638C959.286 711.73 959.277 709.576 959.261 705.267C959.244 700.959 959.236 698.805 958.247 697.814C958.066 697.632 957.864 697.483 957.644 697.367C956.442 696.736 954.662 697.567 951.103 699.227L948.396 700.49C944.313 702.395 942.271 703.347 941.009 705.475ZM944.652 714.052C945.549 713.634 946.273 712.415 946.269 711.329C946.264 710.243 945.534 709.702 944.637 710.121C943.74 710.539 943.016 711.759 943.02 712.844C943.025 713.93 943.755 714.471 944.652 714.052ZM951.141 709.056C951.145 710.142 950.421 711.361 949.524 711.779C948.627 712.198 947.897 711.657 947.893 710.571C947.888 709.486 948.612 708.266 949.509 707.848C950.406 707.429 951.137 707.97 951.141 709.056ZM954.396 709.506C955.293 709.088 956.017 707.869 956.013 706.783C956.009 705.697 955.278 705.156 954.381 705.575C953.484 705.993 952.76 707.213 952.765 708.298C952.769 709.384 953.499 709.925 954.396 709.506Z" fill="#EDEDED"/>
  <path d="M833.045 776.805C813.985 772.732 827.672 750.227 832.975 758.609C838.196 745.317 852.007 754.993 833.045 776.805Z" fill="#EDEDED"/>
  <ellipse rx="20.5516" ry="26.1207" transform="matrix(0.906225 -0.422795 0.00383834 0.999993 891.022 735.125)" fill="#22C1C3"/>
  <path d="M890.376 728.817L883.302 742.077L883.344 752.807C883.345 753.085 883.411 753.321 883.527 753.464C883.644 753.606 883.801 753.643 883.965 753.567L888.287 751.531C888.45 751.454 888.606 751.27 888.72 751.02C888.835 750.77 888.898 750.474 888.897 750.197L888.873 743.931C888.872 743.653 888.936 743.356 889.051 743.106C889.166 742.855 889.322 742.672 889.486 742.595L891.955 741.444C892.118 741.367 892.276 741.404 892.392 741.547C892.509 741.689 892.575 741.925 892.576 742.203L892.6 748.465C892.6 748.603 892.616 748.732 892.648 748.845C892.679 748.958 892.725 749.053 892.783 749.124C892.84 749.195 892.909 749.24 892.984 749.258C893.059 749.276 893.14 749.266 893.221 749.228L897.542 747.232C897.706 747.156 897.862 746.973 897.977 746.722C898.092 746.472 898.156 746.175 898.155 745.897L898.114 735.16L890.966 728.542C890.882 728.466 890.777 728.453 890.67 728.503C890.563 728.553 890.459 728.664 890.376 728.817V728.817ZM901.635 730.334L898.393 727.327L898.358 718.258C898.357 718.05 898.308 717.873 898.22 717.766C898.133 717.659 898.015 717.631 897.892 717.688L895.732 718.696C895.609 718.753 895.492 718.891 895.406 719.079C895.319 719.267 895.271 719.489 895.272 719.698L895.291 724.452L891.819 721.24C891.486 720.932 891.069 720.873 890.64 721.073C890.21 721.273 889.796 721.72 889.466 722.338L879.755 740.542C879.708 740.629 879.67 740.728 879.642 740.833C879.614 740.937 879.596 741.045 879.591 741.151C879.586 741.256 879.592 741.357 879.611 741.447C879.629 741.537 879.658 741.616 879.697 741.677L880.689 743.248C880.728 743.31 880.776 743.353 880.829 743.377C880.883 743.4 880.942 743.403 881.003 743.385C881.064 743.366 881.125 743.327 881.183 743.27C881.241 743.213 881.295 743.138 881.341 743.05L890.365 726.133C890.449 725.979 890.552 725.868 890.66 725.818C890.767 725.768 890.871 725.782 890.956 725.857L900.077 734.309C900.124 734.353 900.179 734.377 900.237 734.381C900.295 734.384 900.356 734.366 900.417 734.328C900.477 734.29 900.536 734.233 900.589 734.159C900.643 734.086 900.69 733.998 900.729 733.9L901.704 731.412C901.743 731.314 901.772 731.208 901.789 731.101C901.806 730.993 901.812 730.886 901.805 730.786C901.799 730.686 901.78 730.595 901.751 730.517C901.722 730.439 901.682 730.377 901.635 730.334V730.334Z" fill="#EDEDED"/>
  <g filter="url(#filter8_i)">
    <path d="M216.692 208.227C216.675 197.241 224.927 185.116 235.175 181.073L452.415 95.3413C475.721 86.144 494.74 99.0079 494.778 123.995L495.681 715.97C495.698 726.956 487.446 739.081 477.198 743.124L259.958 828.856C236.652 838.053 217.633 825.189 217.595 800.202L216.692 208.227Z" fill="#C4C4C4"/>
  </g>
  <rect width="254.484" height="612.519" rx="15" transform="matrix(0.932765 -0.360484 0.00152599 0.999999 250.5 208.875)" fill="#EDEDED"/>
  <path d="M286.53 294.311C286.528 293.343 286.208 292.726 285.57 292.459C284.932 292.182 283.783 292.078 282.124 292.149C280.466 292.209 279.152 292.147 278.184 291.962C275.546 291.454 274.226 289.907 274.222 287.32C274.22 285.976 274.568 284.644 275.268 283.325C275.979 281.99 276.992 280.772 278.309 279.67C279.637 278.564 281.124 277.693 282.771 277.057C284.429 276.416 285.907 276.17 287.204 276.318C288.502 276.455 289.507 276.973 290.221 277.871C290.946 278.765 291.309 279.959 291.311 281.451L286.529 283.299C286.527 282.16 286.191 281.406 285.521 281.039C284.85 280.659 283.909 280.704 282.698 281.172C281.529 281.624 280.621 282.243 279.973 283.029C279.326 283.803 279.003 284.623 279.004 285.489C279.005 286.298 279.383 286.83 280.139 287.086C280.905 287.337 282.027 287.416 283.505 287.324C286.227 287.15 288.21 287.472 289.456 288.29C290.701 289.108 291.325 290.486 291.328 292.423C291.331 294.576 290.574 296.562 289.056 298.379C287.538 300.186 285.494 301.586 282.922 302.58C281.136 303.27 279.51 303.551 278.042 303.423C276.575 303.283 275.452 302.754 274.674 301.834C273.907 300.911 273.523 299.646 273.52 298.04L278.318 296.185C278.323 298.931 279.855 299.712 282.916 298.53C284.053 298.09 284.94 297.502 285.577 296.766C286.214 296.018 286.531 295.2 286.53 294.311ZM299.767 272.677L299.774 277.223L302.723 276.083L302.729 279.706L299.78 280.846L299.794 290.074C299.795 290.758 299.918 291.201 300.163 291.402C300.408 291.604 300.876 291.572 301.566 291.305C302.076 291.107 302.528 290.893 302.921 290.661L302.927 294.404C302.024 295.049 301.094 295.557 300.138 295.926C296.907 297.175 295.257 296.063 295.188 292.59L295.173 282.626L292.654 283.6L292.649 279.977L295.168 279.003L295.161 274.457L299.767 272.677ZM315.313 289.72C315.1 289.358 314.945 288.865 314.848 288.241C313.734 290.005 312.285 291.232 310.499 291.922C308.81 292.575 307.406 292.593 306.289 291.976C305.182 291.355 304.627 290.247 304.625 288.652C304.622 286.692 305.294 284.928 306.642 283.358C308.001 281.784 309.961 280.497 312.522 279.495L314.642 278.676L314.641 277.616C314.639 276.762 314.431 276.158 314.016 275.806C313.611 275.449 312.968 275.441 312.086 275.782C311.31 276.082 310.699 276.518 310.254 277.089C309.818 277.656 309.601 278.287 309.602 278.982L304.996 280.763C304.994 279.692 305.301 278.581 305.916 277.432C306.531 276.282 307.401 275.233 308.527 274.285C309.652 273.326 310.917 272.575 312.319 272.033C314.445 271.211 316.13 271.136 317.375 271.806C318.631 272.46 319.26 273.825 319.264 275.898L319.276 283.913C319.289 285.664 319.52 286.903 319.967 287.63L319.968 287.921L315.313 289.72ZM311.498 287.757C312.178 287.494 312.805 287.092 313.378 286.552C313.952 285.999 314.376 285.397 314.651 284.743L314.647 281.564L312.925 282.229C310.619 283.121 309.393 284.45 309.247 286.216L309.231 286.513C309.232 287.128 309.435 287.557 309.839 287.8C310.244 288.042 310.797 288.028 311.498 287.757ZM328.302 261.649L328.308 266.195L331.258 265.056L331.263 268.679L328.314 269.818L328.328 279.047C328.329 279.73 328.452 280.173 328.697 280.375C328.942 280.577 329.41 280.544 330.1 280.277C330.611 280.08 331.062 279.866 331.455 279.634L331.461 283.377C330.558 284.022 329.628 284.529 328.672 284.899C325.441 286.148 323.791 285.035 323.722 281.562L323.707 271.599L321.188 272.572L321.183 268.949L323.702 267.976L323.695 263.43L328.302 261.649ZM338.714 280.676L334.091 282.463L334.063 263.971L338.686 262.185L338.714 280.676ZM333.785 259.291C333.784 258.55 334.011 257.853 334.467 257.197C334.934 256.538 335.566 256.055 336.363 255.747C337.15 255.443 337.777 255.44 338.245 255.737C338.714 256.035 338.949 256.554 338.95 257.295C338.951 258.047 338.713 258.754 338.235 259.418C337.768 260.077 337.147 260.557 336.371 260.856C335.595 261.156 334.968 261.159 334.489 260.866C334.021 260.568 333.786 260.043 333.785 259.291ZM351.858 270.484C351.857 269.88 351.574 269.516 351.011 269.392C350.457 269.252 349.564 269.284 348.331 269.487C344.228 270.149 342.174 269.073 342.169 266.259C342.167 264.619 342.797 263.007 344.06 261.425C345.334 259.827 346.996 258.631 349.047 257.839C351.236 256.993 352.985 256.869 354.294 257.469C355.613 258.065 356.275 259.246 356.277 261.012L351.67 262.793C351.669 262.086 351.456 261.587 351.03 261.296C350.604 260.993 349.94 261.016 349.036 261.365C348.261 261.665 347.66 262.085 347.236 262.625C346.811 263.166 346.6 263.726 346.6 264.307C346.601 264.854 346.841 265.206 347.32 265.363C347.809 265.505 348.628 265.479 349.776 265.286C350.924 265.082 351.892 264.981 352.679 264.985C355.114 265.002 356.333 266.189 356.337 268.547C356.339 270.234 355.666 271.862 354.318 273.431C352.97 274.99 351.228 276.182 349.092 277.007C347.647 277.566 346.361 277.789 345.233 277.678C344.117 277.551 343.239 277.132 342.6 276.421C341.96 275.699 341.64 274.78 341.638 273.664L346.006 271.976C346.05 272.836 346.354 273.392 346.918 273.641C347.482 273.89 348.237 273.832 349.182 273.467C350.065 273.126 350.728 272.693 351.174 272.167C351.631 271.626 351.858 271.065 351.858 270.484ZM364.806 247.542L364.813 252.088L367.762 250.948L367.768 254.571L364.818 255.711L364.833 264.939C364.834 265.623 364.957 266.065 365.201 266.267C365.446 266.469 365.914 266.436 366.605 266.169C367.115 265.972 367.567 265.758 367.96 265.526L367.965 269.269C367.063 269.914 366.133 270.422 365.176 270.791C361.946 272.04 360.296 270.927 360.227 267.454L360.212 257.491L357.693 258.464L357.687 254.841L360.206 253.868L360.199 249.322L364.806 247.542ZM375.219 266.568L370.596 268.355L370.568 249.864L375.19 248.077L375.219 266.568ZM370.289 245.183C370.288 244.443 370.516 243.745 370.972 243.09C371.439 242.43 372.071 241.947 372.868 241.639C373.654 241.335 374.282 241.332 374.75 241.63C375.218 241.927 375.453 242.447 375.454 243.187C375.455 243.939 375.217 244.647 374.74 245.31C374.273 245.969 373.651 246.449 372.876 246.749C372.1 247.048 371.472 247.051 370.993 246.758C370.525 246.46 370.29 245.935 370.289 245.183ZM386.196 258.683C387.046 258.355 387.737 257.837 388.267 257.131C388.798 256.424 389.073 255.651 389.093 254.811L393.413 253.141C393.405 254.399 393.088 255.672 392.462 256.963C391.837 258.242 390.977 259.384 389.883 260.388C388.8 261.376 387.6 262.125 386.282 262.634C383.817 263.587 381.871 263.502 380.444 262.377C379.017 261.241 378.302 259.192 378.297 256.23L378.297 255.905C378.292 253.057 378.996 250.511 380.406 248.267C381.817 246.023 383.755 244.425 386.221 243.472C388.378 242.638 390.106 242.632 391.405 243.452C392.714 244.257 393.381 245.749 393.405 247.929L389.085 249.598C389.063 248.649 388.785 247.982 388.253 247.594C387.721 247.196 387.019 247.165 386.147 247.502C385.074 247.917 384.262 248.652 383.71 249.709C383.17 250.75 382.901 252.211 382.904 254.091L382.904 254.603C382.907 256.506 383.18 257.768 383.724 258.391C384.267 259.013 385.091 259.11 386.196 258.683ZM405.387 249.796C405.386 249.192 405.104 248.828 404.54 248.704C403.987 248.565 403.093 248.596 401.86 248.799C397.757 249.462 395.703 248.386 395.699 245.572C395.696 243.931 396.326 242.32 397.589 240.737C398.863 239.139 400.525 237.944 402.576 237.151C404.765 236.305 406.514 236.182 407.823 236.782C409.143 237.378 409.804 238.559 409.806 240.325L405.2 242.105C405.199 241.399 404.985 240.9 404.559 240.609C404.134 240.306 403.469 240.329 402.566 240.678C401.79 240.978 401.19 241.398 400.765 241.938C400.341 242.478 400.129 243.039 400.13 243.62C400.131 244.167 400.37 244.519 400.849 244.676C401.338 244.817 402.157 244.792 403.305 244.599C404.453 244.394 405.421 244.294 406.208 244.298C408.643 244.314 409.862 245.502 409.866 247.86C409.868 249.546 409.196 251.174 407.848 252.744C406.5 254.302 404.757 255.494 402.621 256.32C401.176 256.878 399.89 257.102 398.762 256.99C397.646 256.863 396.768 256.445 396.129 255.734C395.49 255.012 395.169 254.093 395.168 252.976L399.535 251.288C399.579 252.149 399.883 252.704 400.447 252.954C401.011 253.203 401.766 253.145 402.712 252.779C403.594 252.439 404.258 252.005 404.703 251.48C405.16 250.938 405.388 250.377 405.387 249.796Z" fill="black"/>
  <rect width="221.356" height="186.855" rx="30" transform="matrix(0.932765 -0.360484 0.00152599 0.999999 265.461 342.633)" fill="#E0E0E0"/>
  <rect width="15.8111" height="73.8304" rx="7.90557" transform="matrix(0.932765 -0.360484 0.00152599 0.999999 279.648 430.176)" fill="#22C1C3"/>
  <rect width="15.8111" height="73.8304" rx="7.90557" transform="matrix(0.932765 -0.360484 0.00152599 0.999999 303.486 394.515)" fill="#C4C4C4"/>
  <rect width="15.8111" height="91.1487" rx="7.90557" transform="matrix(0.932765 -0.360484 0.00152599 0.999999 327.334 366.146)" fill="#C4C4C4"/>
  <rect width="15.8111" height="91.1486" rx="7.90556" transform="matrix(0.932765 -0.360484 0.00152599 0.999999 350.548 381.799)" fill="#C4C4C4"/>
  <rect width="15.8111" height="111.201" rx="7.90557" transform="matrix(0.932765 -0.360484 0.00152599 0.999999 375.774 335.569)" fill="#C4C4C4"/>
  <rect width="15.8111" height="84.7682" rx="7.90557" transform="matrix(0.932765 -0.360484 0.00152599 0.999999 398.327 378.839)" fill="#22C1C3"/>
  <rect width="15.8111" height="84.7682" rx="7.90556" transform="matrix(0.932765 -0.360484 0.00152599 0.999999 422.893 360.224)" fill="#C4C4C4"/>
  <rect width="15.8111" height="84.7682" rx="7.90557" transform="matrix(0.932765 -0.360484 0.00152599 0.999999 445.322 322.372)" fill="#C4C4C4"/>
  <rect width="221.356" height="122.139" rx="20" transform="matrix(0.932765 -0.360484 0.00152599 0.999999 266.512 571.144)" fill="#E0E0E0"/>
  <rect width="134.771" height="13.6723" rx="6.83614" transform="matrix(0.932765 -0.360484 0.00152599 0.999999 327.745 635.034)" fill="#C4C4C4"/>
  <rect width="57.9742" height="15.4953" rx="7.74763" transform="matrix(0.932765 -0.360484 0.00152599 0.999999 327.743 634.123)" fill="#22C1C3"/>
  <path d="M310.532 591.147C310.711 590.246 310.81 589.298 310.809 588.35C310.802 584.233 308.91 581.622 306.584 582.521C305.719 582.855 304.912 583.634 304.246 584.684C303.024 581.425 300.751 579.801 298.148 580.806C294.268 582.306 291.134 589.083 291.145 595.95C291.145 596.16 291.15 596.368 291.154 596.576C288.699 599.056 286.94 603.886 286.948 608.765C286.957 614.941 289.796 618.857 293.286 617.509L309.438 611.266C312.541 610.067 315.05 604.643 315.041 599.151C315.034 594.343 313.097 591.073 310.532 591.147ZM304.709 600.292L300.095 610.268C299.824 610.854 299.376 611.027 299.103 610.651L294.464 604.251C294.02 603.638 294.334 602.179 294.957 601.939L297.828 600.829L297.814 592.129C297.813 591.445 298.129 590.764 298.515 590.614L300.622 589.8C301.008 589.651 301.325 590.088 301.326 590.772L301.339 599.472L304.21 598.363C304.833 598.122 305.151 599.336 304.709 600.292V600.292Z" fill="#22C1C3"/>
  <path d="M332.376 591.061L332.354 576.843L336.435 575.265C337.601 574.815 338.643 574.696 339.561 574.908C340.485 575.111 341.206 575.633 341.723 576.476C342.241 577.311 342.501 578.39 342.503 579.712L342.504 580.366C342.506 581.687 342.253 582.961 341.744 584.187C341.242 585.41 340.53 586.484 339.607 587.407C338.685 588.33 337.644 589.019 336.484 589.474L332.376 591.061ZM335.091 578.16L335.105 587.652L336.426 587.141C337.495 586.728 338.311 586.038 338.875 585.071C339.438 584.104 339.725 582.922 339.735 581.524L339.734 580.772C339.732 579.327 339.451 578.341 338.891 577.815C338.331 577.282 337.514 577.223 336.439 577.639L335.091 578.16ZM343.918 581.217C343.917 580.168 344.103 579.161 344.479 578.196C344.854 577.23 345.393 576.386 346.097 575.665C346.807 574.941 347.629 574.398 348.565 574.037C349.895 573.523 350.979 573.54 351.819 574.089C352.664 574.635 353.136 575.638 353.236 577.098L353.255 577.813C353.258 579.434 352.838 580.9 351.995 582.209C351.152 583.512 350.021 584.438 348.6 584.987C347.179 585.536 346.042 585.487 345.191 584.839C344.345 584.188 343.921 583.023 343.918 581.344L343.918 581.217ZM346.551 580.404C346.552 581.407 346.73 582.107 347.083 582.505C347.436 582.896 347.94 582.965 348.596 582.712C349.234 582.465 349.731 582.012 350.089 581.353C350.446 580.687 350.624 579.778 350.622 578.626C350.621 577.643 350.441 576.95 350.081 576.548C349.722 576.146 349.218 576.071 348.568 576.322C347.924 576.571 347.427 577.033 347.075 577.71C346.724 578.38 346.549 579.278 346.551 580.404ZM363.45 575.212L364.733 567.984L367.275 567.001L364.777 578.539L362.573 579.391L360.695 573.463L358.838 580.835L356.643 581.683L354.112 572.088L356.654 571.106L357.948 577.329L359.742 569.913L361.646 569.177L363.45 575.212ZM371.01 565.558L371.093 566.747C371.796 565.531 372.74 564.694 373.924 564.236C374.969 563.833 375.746 563.861 376.258 564.321C376.769 564.782 377.031 565.664 377.045 566.968L377.056 573.794L374.423 574.811L374.413 568.054C374.412 567.455 374.29 567.069 374.047 566.896C373.803 566.716 373.399 566.735 372.835 566.954C372.094 567.24 371.539 567.793 371.169 568.613L371.181 576.065L368.548 577.082L368.532 566.516L371.01 565.558ZM381.838 571.946L379.197 572.967L379.174 557.967L381.815 556.946L381.838 571.946ZM383.597 565.882C383.595 564.834 383.782 563.827 384.158 562.861C384.533 561.895 385.072 561.052 385.776 560.33C386.486 559.606 387.308 559.064 388.244 558.702C389.574 558.188 390.658 558.206 391.498 558.754C392.343 559.3 392.815 560.303 392.915 561.763L392.934 562.479C392.937 564.1 392.517 565.565 391.674 566.874C390.831 568.177 389.7 569.103 388.279 569.652C386.858 570.201 385.721 570.152 384.87 569.504C384.024 568.854 383.6 567.689 383.597 566.009L383.597 565.882ZM386.23 565.07C386.231 566.072 386.409 566.772 386.762 567.17C387.115 567.561 387.619 567.63 388.275 567.377C388.913 567.13 389.41 566.678 389.768 566.018C390.125 565.352 390.303 564.443 390.301 563.291C390.3 562.308 390.12 561.615 389.76 561.214C389.401 560.812 388.897 560.736 388.247 560.987C387.603 561.236 387.106 561.699 386.754 562.375C386.403 563.045 386.228 563.943 386.23 565.07ZM400.275 564.821C400.153 564.614 400.064 564.332 400.009 563.975C399.373 564.984 398.544 565.685 397.524 566.079C396.559 566.452 395.757 566.463 395.118 566.11C394.486 565.755 394.169 565.122 394.167 564.211C394.166 563.091 394.55 562.082 395.32 561.185C396.097 560.286 397.216 559.55 398.68 558.978L399.892 558.51L399.891 557.904C399.89 557.416 399.771 557.071 399.534 556.87C399.302 556.666 398.935 556.662 398.431 556.856C397.987 557.028 397.638 557.277 397.384 557.603C397.135 557.927 397.011 558.288 397.012 558.685L394.379 559.702C394.378 559.09 394.553 558.456 394.905 557.799C395.256 557.142 395.754 556.543 396.397 556.001C397.04 555.453 397.763 555.024 398.564 554.714C399.779 554.244 400.742 554.201 401.453 554.584C402.171 554.958 402.53 555.738 402.532 556.923L402.539 561.503C402.547 562.503 402.679 563.211 402.934 563.627L402.935 563.793L400.275 564.821ZM398.095 563.699C398.483 563.549 398.842 563.319 399.169 563.01C399.497 562.695 399.739 562.35 399.897 561.977L399.894 560.16L398.91 560.54C397.592 561.05 396.892 561.809 396.808 562.819L396.799 562.988C396.8 563.34 396.916 563.585 397.147 563.723C397.378 563.862 397.694 563.854 398.095 563.699ZM404.147 557.96C404.145 556.313 404.486 554.868 405.17 553.626C405.861 552.382 406.805 551.529 408.001 551.067C408.961 550.696 409.754 550.774 410.38 551.3L410.372 545.91L413.014 544.889L413.037 559.889L410.659 560.807L410.53 559.734C409.875 560.866 409.032 561.632 408 562.031C406.84 562.479 405.907 562.351 405.201 561.647C404.501 560.933 404.15 559.704 404.147 557.96ZM406.78 557.147C406.781 558.137 406.944 558.833 407.266 559.236C407.589 559.639 408.057 559.722 408.67 559.485C409.484 559.171 410.057 558.581 410.39 557.716L410.384 553.546C410.055 552.937 409.486 552.789 408.679 553.101C407.409 553.592 406.777 554.94 406.78 557.147Z" fill="black"/>
  <rect width="254.484" height="69.2729" rx="10" transform="matrix(0.932765 -0.360484 0.00152599 0.999999 251.329 752.121)" fill="#E0E0E0"/>
  <ellipse rx="21.458" ry="25.9774" transform="matrix(0.932765 -0.360484 0.00152599 0.999999 371.824 739.754)" fill="#22C1C3"/>
  <path d="M371.146 733.451L363.519 746.292L363.535 756.963C363.535 757.24 363.606 757.478 363.73 757.625C363.855 757.772 364.024 757.817 364.2 757.749L368.845 755.935C369.02 755.866 369.188 755.691 369.311 755.448C369.434 755.205 369.503 754.913 369.503 754.638L369.493 748.406C369.493 748.13 369.562 747.838 369.687 747.594C369.811 747.351 369.979 747.176 370.155 747.108L372.808 746.083C372.984 746.015 373.153 746.059 373.277 746.207C373.402 746.354 373.472 746.592 373.473 746.868L373.482 753.096C373.482 753.233 373.499 753.362 373.533 753.476C373.566 753.59 373.615 753.686 373.677 753.76C373.739 753.833 373.812 753.882 373.893 753.903C373.973 753.924 374.06 753.918 374.147 753.884L378.791 752.11C378.966 752.042 379.135 751.867 379.259 751.624C379.383 751.38 379.453 751.088 379.452 750.812L379.436 740.133L371.78 733.206C371.69 733.127 371.578 733.108 371.463 733.153C371.347 733.197 371.235 733.303 371.146 733.451V733.451ZM383.228 735.506L379.756 732.358L379.742 723.339C379.742 723.132 379.689 722.954 379.595 722.843C379.502 722.733 379.375 722.699 379.243 722.75L376.922 723.647C376.79 723.698 376.664 723.83 376.571 724.012C376.478 724.195 376.426 724.414 376.426 724.621L376.433 729.349L372.715 725.987C372.358 725.664 371.911 725.585 371.449 725.763C370.988 725.942 370.542 726.366 370.186 726.964L359.714 744.593C359.664 744.678 359.622 744.775 359.592 744.877C359.562 744.98 359.543 745.086 359.537 745.191C359.531 745.295 359.538 745.396 359.557 745.487C359.576 745.577 359.608 745.656 359.65 745.719L360.71 747.329C360.751 747.393 360.803 747.439 360.86 747.465C360.918 747.491 360.981 747.496 361.047 747.481C361.112 747.465 361.177 747.43 361.24 747.375C361.302 747.321 361.36 747.249 361.411 747.165L371.142 730.781C371.231 730.633 371.343 730.528 371.459 730.483C371.574 730.438 371.686 730.457 371.776 730.536L381.546 739.383C381.596 739.429 381.654 739.456 381.717 739.462C381.779 739.468 381.845 739.453 381.91 739.418C381.975 739.383 382.038 739.329 382.096 739.259C382.154 739.189 382.205 739.103 382.246 739.008L383.3 736.581C383.342 736.485 383.373 736.382 383.392 736.276C383.41 736.17 383.417 736.064 383.41 735.964C383.403 735.864 383.384 735.772 383.352 735.694C383.321 735.615 383.279 735.551 383.228 735.506V735.506Z" fill="#EDEDED"/>
  <path fill-rule="evenodd" clip-rule="evenodd" d="M435.358 700.152C431.208 701.756 427.85 707.353 427.858 712.655L427.864 716.768C427.867 718.252 427.492 719.841 426.797 721.297L425.21 724.622C424.603 725.894 424.783 727.246 425.715 727.399C427.393 727.675 430.483 727.647 435.397 725.748C440.31 723.85 443.397 721.49 445.072 719.918C446.003 719.045 446.179 717.556 445.568 716.754L443.973 714.659C443.274 713.742 442.895 712.444 442.893 710.96L442.887 706.846C442.879 701.545 439.508 698.548 435.358 700.152ZM435.405 731.348C433.845 731.951 432.549 730.993 432.308 729.177C433.247 728.919 434.276 728.583 435.401 728.148C436.525 727.714 437.554 727.255 438.492 726.787C438.257 728.786 436.966 730.745 435.405 731.348Z" fill="#EDEDED"/>
  <path d="M300.52 753.174C293.15 756.023 287.189 766.845 287.205 777.348C287.21 780.835 287.876 783.845 289.029 786.21C289.29 786.745 289.786 786.922 290.302 786.722L310.827 778.79C311.343 778.591 311.838 778.031 312.097 777.295C313.242 774.042 313.897 770.521 313.892 767.035C313.876 756.532 307.889 750.326 300.52 753.174ZM300.526 757.4C301.208 757.137 301.759 757.593 301.933 758.419C301.882 758.588 301.811 758.746 301.774 758.921L301.35 760.914C301.112 761.236 300.842 761.507 300.533 761.626C299.714 761.943 299.049 761.253 299.047 760.086C299.045 758.919 299.707 757.717 300.526 757.4ZM291.659 779.855C290.841 780.172 290.175 779.482 290.174 778.315C290.172 777.148 290.834 775.946 291.653 775.629C292.472 775.313 293.137 776.002 293.139 777.169C293.141 778.336 292.478 779.539 291.659 779.855ZM293.867 768.431C293.049 768.747 292.383 768.058 292.381 766.891C292.38 765.724 293.042 764.521 293.861 764.205C294.679 763.888 295.345 764.578 295.347 765.745C295.348 766.912 294.686 768.114 293.867 768.431ZM305.293 759.231L302.47 772.479C303.106 773.009 303.518 773.986 303.52 775.271C303.521 776.045 303.366 776.821 303.112 777.543L298.005 779.517C297.749 778.992 297.591 778.337 297.59 777.563C297.586 775.322 298.811 773.033 300.359 772.292L303.182 759.043C303.374 758.139 304.002 757.441 304.587 757.498C305.17 757.549 305.486 758.326 305.293 759.231V759.231ZM305.978 762.745L306.693 759.394C306.853 759.246 307.023 759.119 307.204 759.049C308.023 758.732 308.688 759.422 308.69 760.589C308.692 761.755 308.029 762.958 307.211 763.275C306.683 763.478 306.242 763.234 305.978 762.745ZM309.451 772.979C308.632 773.296 307.967 772.606 307.965 771.439C307.963 770.273 308.626 769.07 309.444 768.753C310.263 768.437 310.928 769.127 310.93 770.293C310.932 771.46 310.269 772.663 309.451 772.979Z" fill="#EDEDED"/>
  <path d="M177.283 764.854L174.312 793.567L191.143 791.587L193.124 767.825L177.283 764.854Z" fill="#FFB9B9"/>
  <path d="M132.73 547.035C132.73 547.035 46.5925 630.202 101.047 655.945H117.878C117.878 655.945 154.511 595.545 172.333 596.54L177.283 653.965L174.313 769.805L196.095 770.795C196.095 770.795 208.966 712.38 207.976 679.707L230.748 558.916L132.73 547.035Z" fill="#2F2E41"/>
  <path d="M105.995 651.985L117.876 655.945C117.876 655.945 164.41 645.054 167.376 646.045L176.589 645.981L176.289 622.281H136.689L105.995 651.985Z" fill="#2F2E41"/>
  <path d="M193.124 787.627C193.124 787.627 175.302 779.706 172.332 787.627C169.362 795.548 170.352 818.32 170.352 818.32C172.727 822.887 173.427 828.141 172.332 833.171C170.352 841.092 180.253 845.052 193.124 841.092C205.995 837.132 205.995 827.231 205.995 827.231L193.124 787.627Z" fill="#2F2E41"/>
  <path d="M207.974 620.297C207.974 620.297 221.835 612.376 220.845 624.257C220.024 632.104 218.021 639.781 214.904 647.029C214.904 647.029 227.775 680.692 214.904 683.662C202.033 686.632 192.132 679.702 192.132 674.751C192.132 669.8 207.974 620.297 207.974 620.297Z" fill="#2F2E41"/>
  <path d="M164.411 349.018L166.392 386.642L183.223 401.491L202.035 374.759V348.028L164.411 349.018Z" fill="#FFB9B9"/>
  <path d="M177.281 386.641L165.947 378.219L158.47 389.611L124.807 409.411L144.607 460.895L145.597 511.39C145.597 511.39 108.964 549.013 130.746 553.964C152.528 558.915 229.755 569.805 233.715 560.895C237.675 551.985 228.765 459.906 228.765 459.906L231.735 381.689L202.035 370.95L177.281 386.641Z" fill="#22C1C3"/>
  <path d="M116.886 449.348C116.886 449.348 108.965 505.448 123.817 505.448C132.637 505.478 141.38 503.797 149.559 500.498L137.678 469.805L142.628 449.013L116.886 449.348Z" fill="#FFB9B9"/>
  <path d="M139.658 498.521L150.549 500.501C150.549 500.501 182.232 480.701 184.212 479.709C186.192 478.717 152.529 461.887 152.529 461.887L129.757 470.798L139.658 498.521Z" fill="#FFB9B9"/>
  <path opacity="0.1" d="M152.53 461.887L138.23 467.482L142.63 449.016L116.888 449.347C116.888 449.347 108.967 505.447 123.819 505.447C132.639 505.477 141.381 503.796 149.561 500.497L149.486 500.303L150.551 500.497C150.551 500.497 182.234 480.697 184.214 479.705C186.194 478.713 152.53 461.887 152.53 461.887Z" fill="black"/>
  <path d="M187.315 367.791C202.93 367.791 215.587 355.133 215.587 339.519C215.587 323.905 202.93 311.247 187.315 311.247C171.701 311.247 159.043 323.905 159.043 339.519C159.043 355.133 171.701 367.791 187.315 367.791Z" fill="#FFB9B9"/>
  <path d="M162.319 307.624L156.795 305.413C156.795 305.413 168.345 292.697 184.414 293.803L179.894 288.827C179.894 288.827 190.942 284.404 200.985 296.014C206.265 302.114 212.373 309.291 216.185 317.372H222.101L219.632 322.808L228.271 328.247L219.401 327.27C220.242 331.964 219.954 336.79 218.562 341.35L218.8 345.65C218.8 345.65 208.519 329.743 208.519 327.532V333.061C208.519 333.061 202.995 328.085 202.995 324.768L199.982 328.638L198.471 322.547L179.891 328.628L182.904 323.652L171.354 325.311L175.874 319.23C175.874 319.23 162.818 326.417 162.315 332.499C161.812 338.581 155.285 346.32 155.285 346.32L152.272 340.791C152.272 340.791 147.756 315.917 162.319 307.624Z" fill="#2F2E41"/>
  <path d="M211.934 432.185C206.937 438.358 204.149 446.026 204.013 453.967L151.538 451.987C151.538 451.987 137.677 450.007 137.677 459.908V469.808C137.677 469.808 144.608 466.838 148.568 469.808C152.528 472.778 195.102 498.521 215.894 488.62C236.686 478.719 241.636 440.106 241.636 440.106C241.636 440.106 222.825 424.264 211.934 432.185Z" fill="#FFB9B9"/>
  <path d="M223.82 382.68L231.741 381.69C231.741 381.69 247.582 383.67 245.602 414.363C243.622 445.056 242.632 447.036 242.632 447.036C242.632 447.036 221.841 428.224 206.99 437.136L223.82 382.68Z" fill="#22C1C3"/>
  <path d="M128.768 409.416H124.808C119.676 415.897 116.885 423.922 116.887 432.188C116.796 441.042 115.632 449.851 113.422 458.425L144.609 452.98L128.768 409.416Z" fill="#22C1C3"/>
  <defs>
    <filter id="filter0_d" x="539.788" y="218.626" width="197.892" height="245.824" filterUnits="userSpaceOnUse" color-interpolation-filters="sRGB">
      <feFlood flood-opacity="0" result="BackgroundImageFix"/>
      <feColorMatrix in="SourceAlpha" type="matrix" values="0 0 0 0 0 0 0 0 0 0 0 0 0 0 0 0 0 0 127 0"/>
      <feOffset dy="1"/>
      <feGaussianBlur stdDeviation="2"/>
      <feColorMatrix type="matrix" values="0 0 0 0 0.0980392 0 0 0 0 0.156863 0 0 0 0 0.184314 0 0 0 0.28 0"/>
      <feBlend mode="normal" in2="BackgroundImageFix" result="effect1_dropShadow"/>
      <feBlend mode="normal" in="SourceGraphic" in2="effect1_dropShadow" result="shape"/>
    </filter>
    <filter id="filter1_d" x="567.899" y="268.995" width="170.501" height="142.601" filterUnits="userSpaceOnUse" color-interpolation-filters="sRGB">
      <feFlood flood-opacity="0" result="BackgroundImageFix"/>
      <feColorMatrix in="SourceAlpha" type="matrix" values="0 0 0 0 0 0 0 0 0 0 0 0 0 0 0 0 0 0 127 0"/>
      <feOffset/>
      <feGaussianBlur stdDeviation="2"/>
      <feColorMatrix type="matrix" values="0 0 0 0 0.239216 0 0 0 0 0.835294 0 0 0 0 0.596078 0 0 0 1 0"/>
      <feBlend mode="normal" in2="BackgroundImageFix" result="effect1_dropShadow"/>
      <feBlend mode="normal" in="SourceGraphic" in2="effect1_dropShadow" result="shape"/>
    </filter>
    <filter id="filter2_d" x="610.504" y="348.996" width="13.9777" height="14.6662" filterUnits="userSpaceOnUse" color-interpolation-filters="sRGB">
      <feFlood flood-opacity="0" result="BackgroundImageFix"/>
      <feColorMatrix in="SourceAlpha" type="matrix" values="0 0 0 0 0 0 0 0 0 0 0 0 0 0 0 0 0 0 127 0"/>
      <feOffset/>
      <feGaussianBlur stdDeviation="2"/>
      <feColorMatrix type="matrix" values="0 0 0 0 0.239216 0 0 0 0 0.835294 0 0 0 0 0.596078 0 0 0 1 0"/>
      <feBlend mode="normal" in2="BackgroundImageFix" result="effect1_dropShadow"/>
      <feBlend mode="normal" in="SourceGraphic" in2="effect1_dropShadow" result="shape"/>
    </filter>
    <filter id="filter3_d" x="542.927" y="423.008" width="194.057" height="273.351" filterUnits="userSpaceOnUse" color-interpolation-filters="sRGB">
      <feFlood flood-opacity="0" result="BackgroundImageFix"/>
      <feColorMatrix in="SourceAlpha" type="matrix" values="0 0 0 0 0 0 0 0 0 0 0 0 0 0 0 0 0 0 127 0"/>
      <feOffset dy="1"/>
      <feGaussianBlur stdDeviation="2"/>
      <feColorMatrix type="matrix" values="0 0 0 0 0.0980392 0 0 0 0 0.156863 0 0 0 0 0.184314 0 0 0 0.25 0"/>
      <feBlend mode="normal" in2="BackgroundImageFix" result="effect1_dropShadow"/>
      <feBlend mode="normal" in="SourceGraphic" in2="effect1_dropShadow" result="shape"/>
    </filter>
    <filter id="filter4_di" x="849.86" y="363.076" width="56.3175" height="51.7797" filterUnits="userSpaceOnUse" color-interpolation-filters="sRGB">
      <feFlood flood-opacity="0" result="BackgroundImageFix"/>
      <feColorMatrix in="SourceAlpha" type="matrix" values="0 0 0 0 0 0 0 0 0 0 0 0 0 0 0 0 0 0 127 0"/>
      <feOffset dy="4"/>
      <feGaussianBlur stdDeviation="2.5"/>
      <feColorMatrix type="matrix" values="0 0 0 0 1 0 0 0 0 0.341176 0 0 0 0 0.372549 0 0 0 0.3 0"/>
      <feBlend mode="normal" in2="BackgroundImageFix" result="effect1_dropShadow"/>
      <feBlend mode="normal" in="SourceGraphic" in2="effect1_dropShadow" result="shape"/>
      <feColorMatrix in="SourceAlpha" type="matrix" values="0 0 0 0 0 0 0 0 0 0 0 0 0 0 0 0 0 0 127 0" result="hardAlpha"/>
      <feOffset dy="1"/>
      <feComposite in2="hardAlpha" operator="arithmetic" k2="-1" k3="1"/>
      <feColorMatrix type="matrix" values="0 0 0 0 1 0 0 0 0 1 0 0 0 0 1 0 0 0 0.13 0"/>
      <feBlend mode="normal" in2="shape" result="effect2_innerShadow"/>
    </filter>
    <filter id="filter5_di" x="849.364" y="233.815" width="56.3175" height="51.7797" filterUnits="userSpaceOnUse" color-interpolation-filters="sRGB">
      <feFlood flood-opacity="0" result="BackgroundImageFix"/>
      <feColorMatrix in="SourceAlpha" type="matrix" values="0 0 0 0 0 0 0 0 0 0 0 0 0 0 0 0 0 0 127 0"/>
      <feOffset dy="4"/>
      <feGaussianBlur stdDeviation="2.5"/>
      <feColorMatrix type="matrix" values="0 0 0 0 1 0 0 0 0 0.693122 0 0 0 0 0 0 0 0 0.300699 0"/>
      <feBlend mode="normal" in2="BackgroundImageFix" result="effect1_dropShadow"/>
      <feBlend mode="normal" in="SourceGraphic" in2="effect1_dropShadow" result="shape"/>
      <feColorMatrix in="SourceAlpha" type="matrix" values="0 0 0 0 0 0 0 0 0 0 0 0 0 0 0 0 0 0 127 0" result="hardAlpha"/>
      <feOffset dy="1"/>
      <feComposite in2="hardAlpha" operator="arithmetic" k2="-1" k3="1"/>
      <feColorMatrix type="matrix" values="0 0 0 0 1 0 0 0 0 1 0 0 0 0 1 0 0 0 0.13 0"/>
      <feBlend mode="normal" in2="shape" result="effect2_innerShadow"/>
    </filter>
    <filter id="filter6_d" x="783.775" y="453.022" width="202.302" height="259.476" filterUnits="userSpaceOnUse" color-interpolation-filters="sRGB">
      <feFlood flood-opacity="0" result="BackgroundImageFix"/>
      <feColorMatrix in="SourceAlpha" type="matrix" values="0 0 0 0 0 0 0 0 0 0 0 0 0 0 0 0 0 0 127 0"/>
      <feOffset dy="1"/>
      <feGaussianBlur stdDeviation="7"/>
      <feColorMatrix type="matrix" values="0 0 0 0 0.0980392 0 0 0 0 0.156863 0 0 0 0 0.184314 0 0 0 0.29 0"/>
      <feBlend mode="normal" in2="BackgroundImageFix" result="effect1_dropShadow"/>
      <feBlend mode="normal" in="SourceGraphic" in2="effect1_dropShadow" result="shape"/>
    </filter>
    <filter id="filter7_d" x="855.289" y="556.265" width="60.4552" height="75.9828" filterUnits="userSpaceOnUse" color-interpolation-filters="sRGB">
      <feFlood flood-opacity="0" result="BackgroundImageFix"/>
      <feColorMatrix in="SourceAlpha" type="matrix" values="0 0 0 0 0 0 0 0 0 0 0 0 0 0 0 0 0 0 127 0"/>
      <feOffset dy="1"/>
      <feGaussianBlur stdDeviation="7"/>
      <feColorMatrix type="matrix" values="0 0 0 0 0.0980392 0 0 0 0 0.156863 0 0 0 0 0.184314 0 0 0 1 0"/>
      <feBlend mode="normal" in2="BackgroundImageFix" result="effect1_dropShadow"/>
      <feBlend mode="normal" in="SourceGraphic" in2="effect1_dropShadow" result="shape"/>
    </filter>
    <filter id="filter8_i" x="216.692" y="82.3685" width="281.989" height="749.46" filterUnits="userSpaceOnUse" color-interpolation-filters="sRGB">
      <feFlood flood-opacity="0" result="BackgroundImageFix"/>
      <feBlend mode="normal" in="SourceGraphic" in2="BackgroundImageFix" result="shape"/>
      <feColorMatrix in="SourceAlpha" type="matrix" values="0 0 0 0 0 0 0 0 0 0 0 0 0 0 0 0 0 0 127 0" result="hardAlpha"/>
      <feOffset dx="3" dy="-10"/>
      <feGaussianBlur stdDeviation="10"/>
      <feComposite in2="hardAlpha" operator="arithmetic" k2="-1" k3="1"/>
      <feColorMatrix type="matrix" values="0 0 0 0 0 0 0 0 0 0 0 0 0 0 0 0 0 0 0.25 0"/>
      <feBlend mode="normal" in2="shape" result="effect1_innerShadow"/>
    </filter>
    <linearGradient id="paint0_linear" x1="581.039" y1="318.782" x2="626.222" y2="417.488" gradientUnits="userSpaceOnUse">
      <stop stop-color="#B0D8D9" stop-opacity="0.31"/>
      <stop offset="1" stop-color="#22C1C3" stop-opacity="0.31"/>
    </linearGradient>
    <linearGradient id="paint1_linear" x1="13.8203" y1="-27.5454" x2="-55.8934" y2="8.06043" gradientUnits="userSpaceOnUse">
      <stop offset="0.000527872" stop-color="#FFC542"/>
      <stop offset="1" stop-color="#FF575F"/>
    </linearGradient>
    <clipPath id="clip0">
      <rect width="193.28" height="100.876" fill="white" transform="matrix(0.909262 -0.416224 -0.00340059 0.999994 557.859 341.762)"/>
    </clipPath>
    <clipPath id="clip1">
      <rect width="203.353" height="205.299" fill="white" transform="matrix(0.906225 -0.422795 0.00383834 0.999993 792.626 257.227)"/>
    </clipPath>
    <clipPath id="clip2">
      <rect width="56.5474" height="205.299" fill="white" transform="matrix(0.906225 -0.422795 0.00383834 0.999993 851.754 229.641)"/>
    </clipPath>
  </defs>
</svg>
